<svg width="1363" height="389" viewBox="0 0 1363 389" fill="none" xmlns="http://www.w3.org/2000/svg">
<path d="M661.953 0.458551H622.009H603.468C599.155 0.735884 573.004 2.84921 556.193 24.9425C546.673 37.4559 544.571 50.5652 544 56.9026V200.74C544 212.373 553.464 221.837 565.097 221.837H590.135H608.676H648.62H678.121H715.064C719.901 219.324 725.092 216.316 730.468 212.708C738.759 207.145 745.652 201.395 751.268 196.087C751.108 198.833 750.299 215.983 759.361 220.897C762.636 222.675 767.493 222.468 777.213 222.433C781.708 222.417 785.437 222.116 788.031 221.837C809.949 222.467 851.211 223.417 869.269 221.936C870.304 221.851 872.043 221.76 874.353 221.277C889.265 218.167 898.953 205.783 904.68 196.087C903.847 197.381 897.741 207.177 901.856 216.323C902.485 217.72 903.505 219.44 905.213 221.164H944.801C952.077 221.164 955.14 217.919 956.003 217.459C970.772 209.572 976.431 192.428 977.151 192.793C977.864 193.155 968.171 207.891 973.385 217.263C974.485 219.24 975.979 220.492 976.903 221.164H1020.48C1024.23 219.912 1031.31 216.967 1037.61 210.199C1041.78 205.715 1044.13 201.143 1045.44 197.956C1044.69 201.088 1041.84 214.184 1048.31 219.449C1049.79 220.653 1051.75 221.444 1066.09 221.499C1076.44 221.537 1081.61 221.557 1083.29 220.997C1093.14 217.709 1098.46 208.187 1104.24 197.829C1107.76 191.533 1109.95 185.92 1111.3 181.936C1109.52 122.437 1107.75 62.9372 1105.97 3.43855C1101.38 4.31988 1090.4 7.07054 1080.43 16.4719C1069.16 27.0999 1066.13 39.6785 1065.27 44.1359C1064.77 41.9959 1063.6 38.3505 1060.66 34.8252C1059.04 32.8772 1057.34 31.5146 1055.96 30.5906C1056.9 24.9425 1057.84 19.2959 1058.78 13.6492C1056.15 11.3892 1052.82 8.88655 1048.73 6.54789C1043.15 3.36389 1037.93 1.49454 1033.81 0.362542H958.135H936.54C932.656 1.52921 925.679 4.19455 919.017 10.3545C910.919 17.8439 907.749 26.3732 906.547 30.3545C906.447 28.4439 905.228 10.0959 891.933 3.33721C890.031 2.36921 887.455 1.42255 884.14 1.07322C882.543 0.663882 880.905 0.458551 879.243 0.458551H847.221C846.831 0.458551 846.463 0.471885 846.116 0.493218C845.723 0.470552 845.332 0.458551 844.941 0.458551C829.304 0.643884 813.665 0.829207 798.028 1.01454L797.605 5.17854C793.817 5.39054 781.729 6.54789 770.783 16.0026C760.4 24.9666 757.313 35.9799 756.429 39.7666C760.177 24.5252 756.235 10.2412 746.691 3.97855C744.592 2.60255 740.815 0.689217 735.033 0.458551C728.283 0.305217 721.533 0.153205 714.784 -0.000128708C697.173 0.153205 679.564 0.305217 661.953 0.458551Z" fill="#7B43DF"/>
<path d="M687.286 168.504H655.106V13.7921H687.286C690.968 13.7921 693.953 10.8067 693.953 7.1254C693.953 3.44407 690.968 0.458735 687.286 0.458735H647.342H628.801H603.764C599.476 0.458735 596 3.93473 596 8.22273V174.072C596 178.361 599.476 181.837 603.764 181.837H628.801H647.342H687.286C690.968 181.837 693.953 178.852 693.953 175.171C693.953 171.489 690.968 168.504 687.286 168.504Z" fill="white"/>
<path d="M798.027 1.01474C794.346 1.01474 791.361 4.00007 791.361 7.68141V84.4987C790.803 84.3481 790.229 84.2414 789.625 84.2414H768.13V8.22407C768.13 3.93474 764.654 0.458731 760.366 0.458731H716.787C712.499 0.458731 709.023 3.93474 709.023 8.22407V174.073C709.023 178.361 712.499 181.837 716.787 181.837H760.366C764.654 181.837 768.13 178.361 768.13 174.073V97.5747H789.625C790.229 97.5747 790.803 97.4694 791.361 97.3174V174.232C791.361 177.913 794.346 180.899 798.027 180.899C801.709 180.899 804.694 177.913 804.694 174.232V7.68141C804.694 4.00007 801.709 1.01474 798.027 1.01474Z" fill="white"/>
<path d="M983.468 181.164H939.889C935.601 181.164 932.125 177.688 932.125 173.399V86.9361C932.125 82.6481 935.601 79.1721 939.889 79.1721H983.468C987.756 79.1721 991.232 82.6481 991.232 86.9361V173.399C991.232 177.688 987.756 181.164 983.468 181.164Z" fill="white"/>
<path d="M1053.58 46.1369H991.233V13.6956H1053.58V46.1369ZM1059.15 0.362227H983.468H939.89C935.601 0.362227 932.125 3.83822 932.125 8.12622V51.7049C932.125 54.3849 933.483 56.7476 935.549 58.1436C935.961 58.4222 936.403 58.6635 936.867 58.8595C937.331 59.0555 937.82 59.2089 938.325 59.3115C938.83 59.4155 939.354 59.4702 939.89 59.4702H983.468H1059.15C1063.44 59.4702 1066.91 55.9929 1066.91 51.7049V8.12622C1066.91 3.83822 1063.44 0.362227 1059.15 0.362227" fill="white"/>
<path d="M1111.3 0.759695C1107.62 0.759695 1104.63 3.74503 1104.63 7.42636V150.281L1067.25 85.1997C1066.99 84.7504 1066.67 84.357 1066.33 83.9904C1065.17 81.1637 1062.39 79.173 1059.15 79.173H1015.57C1011.28 79.173 1007.8 82.649 1007.8 86.937V173.4C1007.8 177.688 1011.28 181.165 1015.57 181.165H1059.15C1062.12 181.165 1064.7 179.492 1066 177.038C1067.31 175.821 1068.13 174.102 1068.13 172.18V113.509L1105.52 178.59C1106.73 180.697 1108.96 181.937 1111.3 181.937C1111.87 181.937 1112.45 181.864 1113.02 181.71C1115.94 180.932 1117.97 178.289 1117.97 175.269V7.42636C1117.97 3.74503 1114.98 0.759695 1111.3 0.759695Z" fill="white"/>
<path d="M878.039 13.7916H901.269V86.7782H878.039V13.7916ZM907.937 1.01424C907.733 1.01424 907.539 1.05688 907.341 1.07421C906.497 0.687547 905.565 0.458247 904.575 0.458247H872.554C872.193 0.458247 871.846 0.510188 871.501 0.564855C871.101 0.500855 870.693 0.458247 870.275 0.458247H826.697C822.409 0.458247 818.933 3.93555 818.933 8.22355V174.073C818.933 178.361 822.409 181.837 826.697 181.837H870.275C874.563 181.837 878.039 178.361 878.039 174.073V100.112H901.27V175.269C901.27 178.95 904.254 181.936 907.937 181.936C911.618 181.936 914.603 178.95 914.603 175.269V7.6809C914.603 3.99957 911.618 1.01424 907.937 1.01424" fill="white"/>
<path d="M431.284 3.019C405.891 3.019 380.497 3.019 355.104 3.019C351.544 3.30566 339.933 4.68833 329.865 14.111C321.335 22.095 318.64 31.427 317.779 35.131C317.015 19.279 311.235 6.647 301.993 3.67767C300.531 3.207 298.801 2.92166 296.768 3.019H260.203C257.783 3.18566 248.297 4.12165 240.361 11.995C232.313 19.979 231.373 29.6243 231.209 32.0123C231.049 30.459 228.44 7.62033 214.996 3.60566C213.637 3.20033 212.061 2.955 210.247 3.019H163.548C154.657 3.019 147.149 8.99366 144.792 17.1337C138.537 14.2337 131.111 11.4043 122.579 9.255C101.661 3.98433 83.38 5.13633 71.1266 7.05899C65.8706 4.37899 61.3546 3.48699 58.088 3.19366C32.072 0.861658 3.17465 29.219 1.42798 57.3657C1.33598 58.8283 1.38797 59.7483 1.36397 61.1777C0.0573083 137.411 0.266647 193.151 1.42798 204.002C1.70665 206.615 2.49598 213.103 7.12264 217.728C10.6386 221.246 15.4947 223.424 20.8493 223.424H73.868C74.1786 223.424 74.4853 223.414 74.7906 223.392C75.4613 223.414 76.132 223.424 76.816 223.424C87.3146 223.424 107.275 220.974 123.003 204.562C124.84 202.646 126.567 200.55 128.179 198.318C129.017 197.714 129.851 197.08 130.676 196.415V203.438C130.676 214.211 139.441 222.975 150.215 222.975H159.097H203.117H245.276C249.664 222.986 256.784 222.424 264.559 218.954C271.477 215.866 275.793 211.866 279.975 207.994C283.876 204.379 289.096 198.83 293.993 190.962V202.202C293.993 213.835 303.457 223.3 315.091 223.3H341.771H358.669H400.255C410.628 223.294 421.003 223.287 431.376 223.28H474.955C478.955 222.588 485.727 220.855 492.592 215.996C503.108 208.555 507.216 198.47 508.587 194.528L522.748 214.751C524.101 216.592 527.003 219.98 531.829 221.891C538.741 224.628 545.076 222.547 548.331 221.478C553.641 219.734 556.849 217.084 561.779 212.927C569.569 206.358 575.305 201.52 576.916 193.404C577.977 188.052 576.903 183 576.445 181.17C575.573 177.682 574.223 174.976 573.151 173.17C554.327 146.499 535.504 119.83 516.68 93.159C531.529 72.3523 546.38 51.5457 561.229 30.7377C562.416 29.5057 564.053 27.535 565.308 24.7777C566.397 22.383 566.74 20.4043 566.897 19.5457C567.472 16.415 568.643 11.523 571.268 3.75766C564.895 4.751 555.412 7.10034 545.543 13.1697C526.7 24.7577 518.987 42.191 516.46 48.7843C516.591 44.3657 516.256 33.9443 509.385 24.1177C503.617 15.8657 496.173 12.2283 491.048 9.72566C481.16 4.89366 472.031 3.907 466.484 3.75766C454.751 3.511 443.017 3.26566 431.284 3.019Z" fill="#7B43DF"/>
<path d="M291.214 169.642H241.784V9.2236C241.784 5.79694 239.006 3.01958 235.58 3.01958H188.881C185.454 3.01958 182.677 5.79694 182.677 9.2236V176.772C182.677 180.198 185.454 182.976 188.881 182.976H197.764H241.784H291.214C294.896 182.976 297.881 179.99 297.881 176.309C297.881 172.628 294.896 169.642 291.214 169.642Z" fill="white"/>
<path d="M438.921 169.967H405.1V16.3523H438.921C442.603 16.3523 445.588 13.367 445.588 9.68564C445.588 6.00431 442.603 3.01897 438.921 3.01897H397.336H380.437H353.757C349.469 3.01897 345.993 6.49498 345.993 10.7843V175.535C345.993 179.824 349.469 183.3 353.757 183.3H380.437H397.336H438.921C442.603 183.3 445.588 180.315 445.588 176.634C445.588 172.952 442.603 169.967 438.921 169.967Z" fill="white"/>
<path d="M268.788 140.489V70.2369C269.452 70.4223 270.148 70.5276 270.871 70.5276H314.45C315.172 70.5276 315.868 70.4223 316.532 70.2369V140.489H268.788ZM322.1 3.01961H263.22C258.931 3.01961 255.455 6.49561 255.455 10.7836V146.058C255.455 150.346 258.931 153.822 263.22 153.822H322.1C326.39 153.822 329.866 150.346 329.866 146.058V10.7836C329.866 6.49561 326.39 3.01961 322.1 3.01961" fill="white"/>
<path d="M142.417 159.443C131.439 170.897 115.705 170.238 112.535 169.975V104.079C126.08 101.385 139.565 106.25 146.963 116.529C156.784 130.175 152.364 149.065 142.417 159.443ZM150.069 46.054C151 54.5193 147.417 63.9327 140.485 71.2367C133.205 78.906 123.208 83.3833 112.535 83.8673V16.3713C133.768 16.762 148.516 31.9393 150.069 46.054ZM157.784 108.741C151.952 100.637 143.528 94.9047 133.981 92.058C139.999 89.2367 145.496 85.3247 150.156 80.4154C159.899 70.1514 164.697 57.0953 163.323 44.5953C160.825 21.8967 138.152 3.43802 112.535 3.03802V3.01934H111.688H111.565H59.5161C56.1534 3.01934 53.4268 5.74468 53.4268 9.10735V177.335C53.4268 180.698 56.1534 183.423 59.5161 183.423H112.535V183.339C113.367 183.387 114.348 183.423 115.483 183.423C123.861 183.423 139.743 181.505 152.044 168.669C165.575 154.551 172.185 128.749 157.784 108.741" fill="white"/>
<path d="M583.258 172.79L524.862 89.3923L577.995 13.5096C580.107 10.4936 579.374 6.33627 576.358 4.22427C573.345 2.11361 569.186 2.84561 567.074 5.86295L521.386 71.1123V10.7829C521.386 6.49495 517.909 3.01895 513.621 3.01895H470.043C465.754 3.01895 462.278 6.49495 462.278 10.7829V175.516C462.278 179.804 465.754 183.28 470.043 183.28H513.621C517.909 183.28 521.386 179.804 521.386 175.516V107.672L572.337 180.436C573.633 182.29 575.702 183.28 577.803 183.28C579.123 183.28 580.457 182.89 581.621 182.074C584.637 179.962 585.37 175.806 583.258 172.79Z" fill="white"/>
<path d="M766.105 339.383C764.834 338.62 762.802 338.367 761.024 339.383C750.354 348.781 740.193 358.181 727.746 364.785C722.412 367.58 718.093 370.12 713.012 371.645C706.916 373.423 703.105 369.359 704.882 364.785L705.645 362.245C706.408 359.451 707.932 356.148 709.456 353.1C709.964 351.829 710.98 350.56 711.742 349.289C716.569 341.923 717.585 341.669 719.617 339.129C719.872 338.62 720.38 338.367 720.633 337.859C721.141 337.349 721.904 336.335 721.904 335.825V335.572C721.904 332.777 716.061 331 714.282 333.032C712.758 335.319 710.473 337.349 708.693 339.636L708.44 339.891L700.565 347.004L685.83 362.753C683.545 365.293 681.005 367.835 678.21 370.12C676.178 372.152 674.146 373.423 671.352 374.947C671.098 375.2 670.844 375.2 670.589 375.2C669.828 373.169 670.336 370.883 671.098 368.851C672.622 364.024 675.924 360.213 678.972 356.657C682.021 352.847 685.83 349.544 688.88 347.004C692.436 344.464 696.246 342.177 700.31 340.399C699.802 340.653 701.073 340.144 701.328 340.144C701.581 339.891 702.089 340.144 702.344 339.891H702.597C703.105 340.144 703.358 340.399 703.868 340.399C705.392 341.16 707.424 341.16 708.186 339.383C709.456 336.588 706.153 334.811 703.868 334.048C701.834 333.795 699.294 334.301 697.517 334.811C695.845 335.368 694.302 335.965 692.816 336.588C691.685 336.327 690.541 336.457 689.649 337.349C690.157 336.588 689.649 337.349 689.141 337.605L687.87 338.367C686.601 339.129 685.584 339.891 684.569 340.907L675.17 347.765C667.549 353.355 659.928 358.181 652.053 363.261L640.876 369.865L636.049 372.407C634.778 372.915 633.762 373.423 632.492 373.676C631.985 372.407 631.985 370.883 632.238 369.865C632.492 367.327 633.254 365.548 634.27 363.261C636.049 358.689 638.844 354.624 641.13 350.305C643.161 346.241 645.194 341.923 644.94 337.349C644.432 335.064 640.876 333.795 639.097 334.556C631.222 336.843 624.364 342.177 618.774 348.02L620.808 343.447L623.093 338.62L624.617 336.588C625.126 336.335 625.126 336.081 625.38 336.081C626.904 336.081 628.174 335.064 627.412 333.285C626.65 331.761 624.364 331 622.84 331C618.774 331 616.488 335.572 614.964 338.62C612.424 342.431 611.153 345.988 608.868 349.289C602.517 358.435 596.674 367.835 592.101 378.504C591.593 379.773 593.117 381.044 594.134 381.297C595.658 382.059 597.945 382.568 598.96 381.044C599.214 380.789 599.469 380.535 599.722 380.535C606.581 372.915 612.424 364.531 619.029 357.165C624.109 351.829 629.952 345.988 636.557 342.177C635.796 344.717 634.525 346.749 633.509 348.781C630.714 353.355 627.92 357.672 626.141 362.245C624.364 366.309 623.093 370.883 625.38 374.947C627.412 378.249 630.461 379.773 634.525 379.011C637.573 378.504 640.876 377.233 643.669 375.709C647.226 374.185 650.528 372.152 654.085 370.12C657.626 367.975 661.061 365.824 664.441 363.657C663.34 365.976 662.568 368.437 662.46 371.136C662.46 373.931 663.477 376.98 665.764 378.757C669.065 381.044 672.622 381.044 675.67 379.773C678.464 378.757 680.75 377.487 682.782 375.709C685.324 373.931 687.609 370.883 690.15 368.596C692.944 366.056 695.485 363.769 697.77 360.975C696.754 364.531 696.246 368.596 698.278 371.645C701.581 377.233 709.456 377.995 715.553 377.233C719.362 376.471 722.92 374.947 733.081 369.359C736.384 367.58 738.416 366.056 742.733 363.261C752.133 357.165 759.754 350.305 768.137 342.94C769.406 341.923 767.376 339.891 766.105 339.383Z" fill="#7B43DF"/>
<path d="M766.105 339.383C764.834 338.62 762.802 338.367 761.024 339.383C750.354 348.781 740.193 358.181 727.746 364.785C722.412 367.58 718.093 370.12 713.012 371.645C706.916 373.423 703.105 369.359 704.882 364.785L705.645 362.245C706.408 359.451 707.932 356.148 709.456 353.1C709.964 351.829 710.98 350.56 711.742 349.289C716.569 341.923 717.585 341.669 719.617 339.129C719.872 338.62 720.38 338.367 720.633 337.859C721.141 337.349 721.904 336.335 721.904 335.825V335.572C721.904 332.777 716.061 331 714.282 333.032C712.758 335.319 710.473 337.349 708.693 339.636L708.44 339.891L700.565 347.004L685.83 362.753C683.545 365.293 681.005 367.835 678.21 370.12C676.178 372.152 674.146 373.423 671.352 374.947C671.098 375.2 670.844 375.2 670.589 375.2C669.828 373.169 670.336 370.883 671.098 368.851C672.622 364.024 675.924 360.213 678.972 356.657C682.021 352.847 685.83 349.544 688.88 347.004C692.436 344.464 696.246 342.177 700.31 340.399C699.802 340.653 701.073 340.144 701.328 340.144C701.581 339.891 702.089 340.144 702.344 339.891H702.597C703.105 340.144 703.358 340.399 703.868 340.399C705.392 341.16 707.424 341.16 708.186 339.383C709.456 336.588 706.153 334.811 703.868 334.048C701.834 333.795 699.294 334.301 697.517 334.811C695.845 335.368 694.302 335.965 692.816 336.588C691.685 336.327 690.541 336.457 689.649 337.349C690.157 336.588 689.649 337.349 689.141 337.605L687.87 338.367C686.601 339.129 685.584 339.891 684.569 340.907L675.17 347.765C667.549 353.355 659.928 358.181 652.053 363.261L640.876 369.865L636.049 372.407C634.778 372.915 633.762 373.423 632.492 373.676C631.985 372.407 631.985 370.883 632.238 369.865C632.492 367.327 633.254 365.548 634.27 363.261C636.049 358.689 638.844 354.624 641.13 350.305C643.161 346.241 645.194 341.923 644.94 337.349C644.432 335.064 640.876 333.795 639.097 334.556C631.222 336.843 624.364 342.177 618.774 348.02L620.808 343.447L623.093 338.62L624.617 336.588C625.126 336.335 625.126 336.081 625.38 336.081C626.904 336.081 628.174 335.064 627.412 333.285C626.65 331.761 624.364 331 622.84 331C618.774 331 616.488 335.572 614.964 338.62C612.424 342.431 611.153 345.988 608.868 349.289C602.517 358.435 596.674 367.835 592.101 378.504C591.593 379.773 593.117 381.044 594.134 381.297C595.658 382.059 597.945 382.568 598.96 381.044C599.214 380.789 599.469 380.535 599.722 380.535C606.581 372.915 612.424 364.531 619.029 357.165C624.109 351.829 629.952 345.988 636.557 342.177C635.796 344.717 634.525 346.749 633.509 348.781C630.714 353.355 627.92 357.672 626.141 362.245C624.364 366.309 623.093 370.883 625.38 374.947C627.412 378.249 630.461 379.773 634.525 379.011C637.573 378.504 640.876 377.233 643.669 375.709C647.226 374.185 650.528 372.152 654.085 370.12C657.626 367.975 661.061 365.824 664.441 363.657C663.34 365.976 662.568 368.437 662.46 371.136C662.46 373.931 663.477 376.98 665.764 378.757C669.065 381.044 672.622 381.044 675.67 379.773C678.464 378.757 680.75 377.487 682.782 375.709C685.324 373.931 687.609 370.883 690.15 368.596C692.944 366.056 695.485 363.769 697.77 360.975C696.754 364.531 696.246 368.596 698.278 371.645C701.581 377.233 709.456 377.995 715.553 377.233C719.362 376.471 722.92 374.947 733.081 369.359C736.384 367.58 738.416 366.056 742.733 363.261C752.133 357.165 759.754 350.305 768.137 342.94C769.406 341.923 767.376 339.891 766.105 339.383Z" stroke="#7B43DF" stroke-width="13.3333" stroke-miterlimit="10" stroke-linecap="round" stroke-linejoin="round"/>
<path d="M1083.61 292.806C1089.96 284.676 1097.58 276.04 1105.71 269.182L1108.5 266.895C1108.5 266.895 1109.01 266.64 1108.76 266.895C1108.5 267.403 1108.25 267.658 1108.25 267.911C1106.98 270.198 1104.69 274.008 1102.92 276.04L1100.63 279.088C1094.02 289.25 1088.18 296.616 1078.02 308.048C1072.94 313.636 1067.1 319.226 1061.76 324.052L1061.25 324.306C1067.86 313.383 1075.48 302.967 1083.61 292.806ZM874.56 369.523L873.036 369.27L872.018 368.762C872.018 368.762 871.512 368.507 871.257 368.507C870.494 368.252 869.732 367.999 868.97 367.491L867.954 366.983L865.16 364.951L864.144 364.188C864.144 364.188 863.636 363.427 863.382 363.427C862.873 362.664 862.366 362.156 861.858 361.648C861.349 361.14 861.096 360.632 860.588 360.124C860.376 359.559 859.954 359.122 859.432 358.782C867.716 354.166 875.19 349.102 881.677 344.628L882.02 344.394C878.722 352.606 876.84 360.86 874.56 369.523V369.523ZM824.266 348.184C827.569 343.866 831.633 340.055 835.698 336.499C835.698 336.499 836.714 335.738 836.968 335.483C838.238 334.467 839.254 333.451 840.778 332.435C843.32 330.656 845.605 329.387 847.892 328.878C848.146 330.656 847.13 332.435 847.13 332.435C838.746 345.136 821.98 351.487 822.997 349.963L824.266 348.184ZM1180.14 332.688C1178.87 331.927 1176.83 331.672 1175.06 332.688C1164.39 342.088 1154.22 351.487 1141.78 358.092C1136.44 360.887 1132.12 363.427 1127.04 364.951C1120.95 366.728 1117.14 362.664 1118.91 358.092L1119.68 355.552C1120.44 352.758 1121.96 349.455 1123.49 346.407C1124 345.136 1125.01 343.866 1125.77 342.596C1130.6 335.23 1131.62 334.975 1133.65 332.435C1133.9 331.927 1134.41 331.672 1134.66 331.164C1135.17 330.656 1135.93 329.64 1135.93 329.132V328.878C1135.93 326.084 1130.09 324.306 1128.31 326.338C1126.79 328.624 1124.5 330.656 1122.72 332.943L1122.47 333.196L1114.6 340.31L1099.86 356.059C1097.58 358.6 1095.04 361.14 1092.24 363.427C1090.21 365.459 1088.18 366.728 1085.38 368.252C1085.13 368.507 1084.87 368.507 1084.62 368.507C1083.86 366.475 1084.37 364.188 1085.13 362.156C1086.65 357.33 1089.96 353.519 1093 349.963C1096.05 346.152 1099.86 342.85 1102.91 340.31C1106.47 337.77 1110.28 335.483 1114.34 333.706C1113.83 333.959 1115.1 333.451 1115.36 333.451C1115.61 333.196 1116.12 333.451 1116.38 333.196H1116.63C1117.14 333.451 1117.39 333.706 1117.9 333.706C1119.42 334.467 1121.45 334.467 1122.22 332.688C1123.49 329.895 1120.18 328.116 1117.9 327.354C1115.87 327.1 1113.33 327.608 1111.55 328.116C1109.91 328.664 1108.39 329.25 1106.92 329.859C1105.82 329.428 1104.66 329.346 1103.93 329.895C1102.04 331.474 1100.06 333.078 1098.09 334.718C1098.09 334.719 1098.09 334.719 1098.08 334.72C1095.09 336.856 1092.36 339.254 1089.81 341.824C1086.94 344.231 1084.01 346.571 1081.07 348.692C1078.78 350.218 1076.75 351.995 1074.72 353.266C1067.86 358.092 1062.78 361.903 1053.63 366.475C1052.11 367.236 1051.35 367.746 1049.06 368.507C1046.52 369.776 1042.2 370.539 1042.46 369.27V368.252C1042.46 366.983 1042.46 366.728 1042.71 365.712C1043.47 359.616 1046.01 353.774 1048.55 348.184L1051.85 341.072V341.326C1054.65 339.548 1057.95 336.754 1060.49 334.467L1062.78 332.435C1068.62 327.354 1077 319.732 1082.08 314.398C1090.47 305.508 1098.6 295.346 1105.71 285.439L1107.23 283.152C1109.52 279.596 1111.55 276.803 1114.35 271.722V271.468C1115.87 268.674 1117.9 264.61 1116.38 261.815C1114.85 260.036 1111.81 258.258 1109.27 258.766C1109.52 258.766 1107.23 259.782 1106.47 260.29L1105.46 260.799L1103.17 262.576C1097.07 266.895 1092.24 272.23 1092.24 272.23L1087.93 276.548C1079.54 285.439 1071.16 296.363 1064.05 306.27C1058.34 314.478 1052.52 323.818 1047.44 333.314L1041.7 335.991C1035.86 338.278 1030.02 340.31 1023.92 341.579H1023.41V341.326C1024.93 337.516 1025.95 333.451 1023.41 329.895C1021.38 326.847 1017.31 325.83 1014.01 327.608C1011.98 328.878 1010.2 331.164 1009.44 333.451C1008.68 334.975 1008.68 337.007 1008.68 338.531C1008.68 340.818 1009.18 343.104 1010.71 344.883C1010.96 345.136 1011.22 345.39 1011.47 345.644C1010.96 346.407 1010.2 347.168 1009.44 348.184C1006.9 351.742 1003.85 355.043 1001.06 358.346C997.753 361.648 994.96 364.442 990.894 366.475L989.625 367.236C990.388 366.728 989.117 367.491 988.864 367.491C988.354 367.491 988.101 367.746 987.593 367.746C986.83 367.746 985.56 367.746 985.56 366.475V365.459V364.698V364.442C985.56 363.172 986.069 361.903 986.322 360.887C987.846 355.043 991.149 349.708 994.705 345.136C998.262 340.564 1002.07 336.499 1006.39 332.943C1008.68 332.943 1009.69 330.148 1007.66 328.624C1006.39 327.608 1004.1 327.1 1002.58 327.862C1000.62 329.006 998.774 330.322 997.014 331.747C996.834 331.802 996.646 331.847 996.488 331.927C994.201 334.214 993.438 334.214 990.137 337.262L983.024 342.85C982.769 343.104 981.753 343.866 981.753 343.866L968.545 353.011C963.972 356.059 959.4 358.6 954.572 361.394L951.524 362.918L945.681 365.459C944.92 365.712 943.902 366.475 939.33 367.999C931.201 370.539 931.71 368.507 931.71 367.746C931.71 365.967 931.964 364.442 932.472 363.427C933.488 360.378 934.25 360.124 938.061 354.535C940.601 350.979 943.394 347.676 946.444 344.375C948.476 342.088 949.237 341.326 951.27 339.294L953.302 337.77C954.826 336.246 957.366 334.72 958.892 333.706C959.4 333.196 960.416 332.943 960.924 332.435C961.94 333.706 964.48 334.467 965.496 332.943C966.258 331.927 966.765 330.911 966.512 329.895C966.258 328.116 964.48 327.1 962.956 326.592C957.382 324.8 951.193 329.246 946.694 333.332C943.909 335.546 941.15 338.378 938.574 340.31L930.192 346.914C925.11 350.724 920.793 354.028 915.458 357.33C910.885 360.124 909.361 361.14 904.026 363.935C903.01 364.442 901.994 364.951 897.422 366.475C892.596 367.999 887.769 369.776 883.196 369.776C883.449 369.015 883.449 368.507 883.705 367.999C884.974 363.172 886.245 358.092 888.022 353.519L890.564 346.407L892.088 343.104L892.849 341.579L893.612 340.055L897.422 334.467L899.708 331.927C900.978 330.656 901.74 330.148 901.994 329.895L905.042 327.862L906.821 327.1C906.058 327.608 906.821 327.1 907.074 327.1L908.092 326.592H907.837C909.361 326.084 910.377 325.068 909.616 323.543C908.6 321.512 905.55 320.495 903.265 321.003C897.553 322.958 893.006 326.696 889.396 331.26C887.938 331.867 886.538 332.82 885.488 333.451C882.948 335.483 879.392 337.516 876.597 339.548C862.88 348.947 851.448 356.314 839.001 361.903C833.666 364.188 829.348 365.712 823.25 366.222H820.965C820.456 366.222 819.949 365.967 819.44 365.712C817.662 364.188 817.916 362.411 817.916 360.632L818.169 359.616C818.169 359.363 818.425 359.107 818.425 358.854C818.425 358.6 818.425 358.346 818.678 358.092C818.932 356.822 819.44 355.806 819.949 354.79C820.202 354.535 820.202 354.535 820.456 354.282C823.505 355.552 827.569 355.043 830.109 353.774C834.428 352.248 839.001 349.455 842.557 346.914C846.368 344.12 849.67 341.072 852.21 337.516C854.75 333.959 857.037 328.878 852.972 325.576C848.146 322.019 841.541 324.56 837.477 327.1C832.65 329.895 828.332 333.451 825.029 336.754C821.218 340.31 817.154 345.136 814.36 349.455C812.073 353.266 809.533 358.6 810.549 363.172C812.073 367.999 816.901 370.794 821.726 371.302C825.79 371.556 830.109 371.047 833.92 370.032C840.206 368.459 847.481 365.103 853.646 361.89C853.894 362.39 854.189 362.871 854.49 363.172C855 363.935 856.014 364.951 856.777 365.712C858.556 367.746 860.333 369.523 861.858 371.556L867.446 376.636C868.717 378.16 870.241 379.684 872.018 380.7C873.542 381.463 875.576 382.224 877.353 381.463C878.116 381.463 878.877 381.208 879.132 380.7C879.894 379.939 880.656 378.922 880.91 377.906C881.164 377.144 881.418 376.382 881.672 375.62C883.705 375.62 885.99 375.366 888.022 375.112C898.184 373.587 904.026 370.794 913.172 365.967C917.498 363.563 921.606 361.047 925.592 358.442C924.396 360.766 923.248 363.351 923.073 365.459C922.818 369.776 926.629 372.318 930.185 373.587C934.758 375.112 940.346 374.35 944.665 372.826C958.03 368.287 969.889 360.995 980.249 353.931C979.4 355.94 978.684 358.002 978.194 360.124C977.685 362.156 977.432 364.442 977.94 366.475C978.448 369.015 979.972 370.794 982.005 372.063C986.322 374.604 991.404 373.587 995.722 371.81C1000.29 370.032 1004.1 366.475 1007.41 362.918C1010.2 359.87 1012.74 356.822 1015.28 353.519C1016.81 351.742 1018.08 349.963 1019.35 348.184C1022.39 347.931 1025.7 347.168 1027.98 346.914C1033.13 345.843 1038.08 344.214 1042.87 342.36C1042.39 343.371 1041.9 344.384 1041.44 345.39C1039.15 350.724 1036.61 356.822 1035.6 362.664C1035.34 363.935 1035.34 364.698 1035.09 365.967V366.983C1034.84 369.776 1035.85 373.08 1037.12 374.095C1042.71 377.144 1049.82 374.604 1054.14 373.08C1058.97 371.302 1061.51 369.523 1064.56 367.746L1067.1 366.222C1070.72 363.892 1074.21 361.498 1077.6 359.072C1076.99 360.77 1076.57 362.544 1076.49 364.442C1076.49 367.236 1077.51 370.286 1079.79 372.063C1083.1 374.35 1086.65 374.35 1089.7 373.08C1092.5 372.063 1094.78 370.794 1096.81 369.015C1099.35 367.236 1101.64 364.188 1104.18 361.903C1106.98 359.363 1109.52 357.076 1111.8 354.282C1110.78 357.838 1110.28 361.903 1112.31 364.951C1115.61 370.539 1123.49 371.302 1129.58 370.539C1133.39 369.776 1136.95 368.252 1147.11 362.664C1150.41 360.887 1152.45 359.363 1156.76 356.568C1166.16 350.471 1173.78 343.612 1182.17 336.246C1183.44 335.23 1181.41 333.196 1180.14 332.688" fill="#7B43DF"/>
<path d="M1083.61 292.806C1089.96 284.676 1097.58 276.04 1105.71 269.182L1108.5 266.895C1108.5 266.895 1109.01 266.64 1108.76 266.895C1108.5 267.403 1108.25 267.658 1108.25 267.911C1106.98 270.198 1104.69 274.008 1102.92 276.04L1100.63 279.088C1094.02 289.25 1088.18 296.616 1078.02 308.048C1072.94 313.636 1067.1 319.226 1061.76 324.052L1061.25 324.306C1067.86 313.383 1075.48 302.967 1083.61 292.806ZM874.56 369.523L873.036 369.27L872.018 368.762C872.018 368.762 871.512 368.507 871.257 368.507C870.494 368.252 869.732 367.999 868.97 367.491L867.954 366.983L865.16 364.951L864.144 364.188C864.144 364.188 863.636 363.427 863.382 363.427C862.873 362.664 862.366 362.156 861.858 361.648C861.349 361.14 861.096 360.632 860.588 360.124C860.376 359.559 859.954 359.122 859.432 358.782C867.716 354.166 875.19 349.102 881.677 344.628L882.02 344.394C878.722 352.606 876.84 360.86 874.56 369.523V369.523ZM824.266 348.184C827.569 343.866 831.633 340.055 835.698 336.499C835.698 336.499 836.714 335.738 836.968 335.483C838.238 334.467 839.254 333.451 840.778 332.435C843.32 330.656 845.605 329.387 847.892 328.878C848.146 330.656 847.13 332.435 847.13 332.435C838.746 345.136 821.98 351.487 822.997 349.963L824.266 348.184ZM1180.14 332.688C1178.87 331.927 1176.83 331.672 1175.06 332.688C1164.39 342.088 1154.22 351.487 1141.78 358.092C1136.44 360.887 1132.12 363.427 1127.04 364.951C1120.95 366.728 1117.14 362.664 1118.91 358.092L1119.68 355.552C1120.44 352.758 1121.96 349.455 1123.49 346.407C1124 345.136 1125.01 343.866 1125.77 342.596C1130.6 335.23 1131.62 334.975 1133.65 332.435C1133.9 331.927 1134.41 331.672 1134.66 331.164C1135.17 330.656 1135.93 329.64 1135.93 329.132V328.878C1135.93 326.084 1130.09 324.306 1128.31 326.338C1126.79 328.624 1124.5 330.656 1122.72 332.943L1122.47 333.196L1114.6 340.31L1099.86 356.059C1097.58 358.6 1095.04 361.14 1092.24 363.427C1090.21 365.459 1088.18 366.728 1085.38 368.252C1085.13 368.507 1084.87 368.507 1084.62 368.507C1083.86 366.475 1084.37 364.188 1085.13 362.156C1086.65 357.33 1089.96 353.519 1093 349.963C1096.05 346.152 1099.86 342.85 1102.91 340.31C1106.47 337.77 1110.28 335.483 1114.34 333.706C1113.83 333.959 1115.1 333.451 1115.36 333.451C1115.61 333.196 1116.12 333.451 1116.38 333.196H1116.63C1117.14 333.451 1117.39 333.706 1117.9 333.706C1119.42 334.467 1121.45 334.467 1122.22 332.688C1123.49 329.895 1120.18 328.116 1117.9 327.354C1115.87 327.1 1113.33 327.608 1111.55 328.116C1109.91 328.664 1108.39 329.25 1106.92 329.859C1105.82 329.428 1104.66 329.346 1103.93 329.895C1102.04 331.474 1100.06 333.078 1098.09 334.718C1098.09 334.719 1098.09 334.719 1098.08 334.72C1095.09 336.856 1092.36 339.254 1089.81 341.824C1086.94 344.231 1084.01 346.571 1081.07 348.692C1078.78 350.218 1076.75 351.995 1074.72 353.266C1067.86 358.092 1062.78 361.903 1053.63 366.475C1052.11 367.236 1051.35 367.746 1049.06 368.507C1046.52 369.776 1042.2 370.539 1042.46 369.27V368.252C1042.46 366.983 1042.46 366.728 1042.71 365.712C1043.47 359.616 1046.01 353.774 1048.55 348.184L1051.85 341.072V341.326C1054.65 339.548 1057.95 336.754 1060.49 334.467L1062.78 332.435C1068.62 327.354 1077 319.732 1082.08 314.398C1090.47 305.508 1098.6 295.346 1105.71 285.439L1107.23 283.152C1109.52 279.596 1111.55 276.803 1114.35 271.722V271.468C1115.87 268.674 1117.9 264.61 1116.38 261.815C1114.85 260.036 1111.81 258.258 1109.27 258.766C1109.52 258.766 1107.23 259.782 1106.47 260.29L1105.46 260.799L1103.17 262.576C1097.07 266.895 1092.24 272.23 1092.24 272.23L1087.93 276.548C1079.54 285.439 1071.16 296.363 1064.05 306.27C1058.34 314.478 1052.52 323.818 1047.44 333.314L1041.7 335.991C1035.86 338.278 1030.02 340.31 1023.92 341.579H1023.41V341.326C1024.93 337.516 1025.95 333.451 1023.41 329.895C1021.38 326.847 1017.31 325.83 1014.01 327.608C1011.98 328.878 1010.2 331.164 1009.44 333.451C1008.68 334.975 1008.68 337.007 1008.68 338.531C1008.68 340.818 1009.18 343.104 1010.71 344.883C1010.96 345.136 1011.22 345.39 1011.47 345.644C1010.96 346.407 1010.2 347.168 1009.44 348.184C1006.9 351.742 1003.85 355.043 1001.06 358.346C997.753 361.648 994.96 364.442 990.894 366.475L989.625 367.236C990.388 366.728 989.117 367.491 988.864 367.491C988.354 367.491 988.101 367.746 987.593 367.746C986.83 367.746 985.56 367.746 985.56 366.475V365.459V364.698V364.442C985.56 363.172 986.069 361.903 986.322 360.887C987.846 355.043 991.149 349.708 994.705 345.136C998.262 340.564 1002.07 336.499 1006.39 332.943C1008.68 332.943 1009.69 330.148 1007.66 328.624C1006.39 327.608 1004.1 327.1 1002.58 327.862C1000.62 329.006 998.774 330.322 997.014 331.747C996.834 331.802 996.646 331.847 996.488 331.927C994.201 334.214 993.438 334.214 990.137 337.262L983.024 342.85C982.769 343.104 981.753 343.866 981.753 343.866L968.545 353.011C963.972 356.059 959.4 358.6 954.572 361.394L951.524 362.918L945.681 365.459C944.92 365.712 943.902 366.475 939.33 367.999C931.201 370.539 931.71 368.507 931.71 367.746C931.71 365.967 931.964 364.442 932.472 363.427C933.488 360.378 934.25 360.124 938.061 354.535C940.601 350.979 943.394 347.676 946.444 344.375C948.476 342.088 949.237 341.326 951.27 339.294L953.302 337.77C954.826 336.246 957.366 334.72 958.892 333.706C959.4 333.196 960.416 332.943 960.924 332.435C961.94 333.706 964.48 334.467 965.496 332.943C966.258 331.927 966.765 330.911 966.512 329.895C966.258 328.116 964.48 327.1 962.956 326.592C957.382 324.8 951.193 329.246 946.694 333.332C943.909 335.546 941.15 338.378 938.574 340.31L930.192 346.914C925.11 350.724 920.793 354.028 915.458 357.33C910.885 360.124 909.361 361.14 904.026 363.935C903.01 364.442 901.994 364.951 897.422 366.475C892.596 367.999 887.769 369.776 883.196 369.776C883.449 369.015 883.449 368.507 883.705 367.999C884.974 363.172 886.245 358.092 888.022 353.519L890.564 346.407L892.088 343.104L892.849 341.579L893.612 340.055L897.422 334.467L899.708 331.927C900.978 330.656 901.74 330.148 901.994 329.895L905.042 327.862L906.821 327.1C906.058 327.608 906.821 327.1 907.074 327.1L908.092 326.592H907.837C909.361 326.084 910.377 325.068 909.616 323.543C908.6 321.512 905.55 320.495 903.265 321.003C897.553 322.958 893.006 326.696 889.396 331.26C887.938 331.867 886.538 332.82 885.488 333.451C882.948 335.483 879.392 337.516 876.597 339.548C862.88 348.947 851.448 356.314 839.001 361.903C833.666 364.188 829.348 365.712 823.25 366.222H820.965C820.456 366.222 819.949 365.967 819.44 365.712C817.662 364.188 817.916 362.411 817.916 360.632L818.169 359.616C818.169 359.363 818.425 359.107 818.425 358.854C818.425 358.6 818.425 358.346 818.678 358.092C818.932 356.822 819.44 355.806 819.949 354.79C820.202 354.535 820.202 354.535 820.456 354.282C823.505 355.552 827.569 355.043 830.109 353.774C834.428 352.248 839.001 349.455 842.557 346.914C846.368 344.12 849.67 341.072 852.21 337.516C854.75 333.959 857.037 328.878 852.972 325.576C848.146 322.019 841.541 324.56 837.477 327.1C832.65 329.895 828.332 333.451 825.029 336.754C821.218 340.31 817.154 345.136 814.36 349.455C812.073 353.266 809.533 358.6 810.549 363.172C812.073 367.999 816.901 370.794 821.726 371.302C825.79 371.556 830.109 371.047 833.92 370.032C840.206 368.459 847.481 365.103 853.646 361.89C853.894 362.39 854.189 362.871 854.49 363.172C855 363.935 856.014 364.951 856.777 365.712C858.556 367.746 860.333 369.523 861.858 371.556L867.446 376.636C868.717 378.16 870.241 379.684 872.018 380.7C873.542 381.463 875.576 382.224 877.353 381.463C878.116 381.463 878.877 381.208 879.132 380.7C879.894 379.939 880.656 378.922 880.91 377.906C881.164 377.144 881.418 376.382 881.672 375.62C883.705 375.62 885.99 375.366 888.022 375.112C898.184 373.587 904.026 370.794 913.172 365.967C917.498 363.563 921.606 361.047 925.592 358.442C924.396 360.766 923.248 363.351 923.073 365.459C922.818 369.776 926.629 372.318 930.185 373.587C934.758 375.112 940.346 374.35 944.665 372.826C958.03 368.287 969.889 360.995 980.249 353.931C979.4 355.94 978.684 358.002 978.194 360.124C977.685 362.156 977.432 364.442 977.94 366.475C978.448 369.015 979.972 370.794 982.005 372.063C986.322 374.604 991.404 373.587 995.722 371.81C1000.29 370.032 1004.1 366.475 1007.41 362.918C1010.2 359.87 1012.74 356.822 1015.28 353.519C1016.81 351.742 1018.08 349.963 1019.35 348.184C1022.39 347.931 1025.7 347.168 1027.98 346.914C1033.13 345.843 1038.08 344.214 1042.87 342.36C1042.39 343.371 1041.9 344.384 1041.44 345.39C1039.15 350.724 1036.61 356.822 1035.6 362.664C1035.34 363.935 1035.34 364.698 1035.09 365.967V366.983C1034.84 369.776 1035.85 373.08 1037.12 374.095C1042.71 377.144 1049.82 374.604 1054.14 373.08C1058.97 371.302 1061.51 369.523 1064.56 367.746L1067.1 366.222C1070.72 363.892 1074.21 361.498 1077.6 359.072C1076.99 360.77 1076.57 362.544 1076.49 364.442C1076.49 367.236 1077.51 370.286 1079.79 372.063C1083.1 374.35 1086.65 374.35 1089.7 373.08C1092.5 372.063 1094.78 370.794 1096.81 369.015C1099.35 367.236 1101.64 364.188 1104.18 361.903C1106.98 359.363 1109.52 357.076 1111.8 354.282C1110.78 357.838 1110.28 361.903 1112.31 364.951C1115.61 370.539 1123.49 371.302 1129.58 370.539C1133.39 369.776 1136.95 368.252 1147.11 362.664C1150.41 360.887 1152.45 359.363 1156.76 356.568C1166.16 350.471 1173.78 343.612 1182.17 336.246C1183.44 335.23 1181.41 333.196 1180.14 332.688V332.688Z" stroke="#7B43DF" stroke-width="13.3333" stroke-miterlimit="10" stroke-linecap="round" stroke-linejoin="round"/>
<path d="M771.438 335.383C770.168 334.62 768.136 334.367 766.357 335.383C755.688 344.781 745.526 354.181 733.08 360.785C727.745 363.58 723.426 366.12 718.345 367.645C712.249 369.423 708.438 365.359 710.216 360.785L710.978 358.245C711.741 355.451 713.265 352.148 714.789 349.1C715.297 347.829 716.313 346.56 717.076 345.289C721.902 337.923 722.918 337.669 724.95 335.129C725.205 334.62 725.713 334.367 725.966 333.859C726.474 333.349 727.237 332.335 727.237 331.825V331.572C727.237 328.777 721.394 327 719.616 329.032C718.092 331.319 715.806 333.349 714.026 335.636L713.773 335.891L705.898 343.004L691.164 358.753C688.878 361.293 686.338 363.835 683.544 366.12C681.512 368.152 679.48 369.423 676.685 370.947C676.432 371.2 676.177 371.2 675.922 371.2C675.161 369.169 675.669 366.883 676.432 364.851C677.956 360.024 681.257 356.213 684.305 352.657C687.354 348.847 691.164 345.544 694.213 343.004C697.769 340.464 701.58 338.177 705.644 336.399C705.136 336.653 706.406 336.144 706.661 336.144C706.914 335.891 707.422 336.144 707.677 335.891H707.93C708.438 336.144 708.692 336.399 709.201 336.399C710.725 337.16 712.757 337.16 713.52 335.383C714.789 332.588 711.486 330.811 709.201 330.048C707.168 329.795 704.628 330.301 702.85 330.811C701.178 331.368 699.636 331.965 698.149 332.588C697.018 332.327 695.874 332.457 694.982 333.349C695.49 332.588 694.982 333.349 694.474 333.605L693.204 334.367C691.934 335.129 690.917 335.891 689.902 336.907L680.504 343.765C672.882 349.355 665.261 354.181 657.386 359.261L646.209 365.865L641.382 368.407C640.112 368.915 639.096 369.423 637.825 369.676C637.318 368.407 637.318 366.883 637.572 365.865C637.825 363.327 638.588 361.548 639.604 359.261C641.382 354.689 644.177 350.624 646.464 346.305C648.494 342.241 650.528 337.923 650.273 333.349C649.765 331.064 646.209 329.795 644.43 330.556C636.556 332.843 629.697 338.177 624.108 344.02L626.141 339.447L628.426 334.62L629.95 332.588C630.46 332.335 630.46 332.081 630.713 332.081C632.237 332.081 633.508 331.064 632.745 329.285C631.984 327.761 629.697 327 628.173 327C624.108 327 621.821 331.572 620.297 334.62C617.757 338.431 616.486 341.988 614.201 345.289C607.85 354.435 602.008 363.835 597.434 374.504C596.926 375.773 598.45 377.044 599.468 377.297C600.992 378.059 603.278 378.568 604.293 377.044C604.548 376.789 604.802 376.535 605.056 376.535C611.914 368.915 617.757 360.531 624.362 353.165C629.442 347.829 635.285 341.988 641.89 338.177C641.129 340.717 639.858 342.749 638.842 344.781C636.048 349.355 633.253 353.672 631.474 358.245C629.697 362.309 628.426 366.883 630.713 370.947C632.745 374.249 635.794 375.773 639.858 375.011C642.906 374.504 646.209 373.233 649.002 371.709C652.56 370.185 655.861 368.152 659.418 366.12C662.96 363.975 666.394 361.824 669.774 359.657C668.673 361.976 667.901 364.437 667.793 367.136C667.793 369.931 668.81 372.98 671.097 374.757C674.398 377.044 677.956 377.044 681.004 375.773C683.797 374.757 686.084 373.487 688.116 371.709C690.657 369.931 692.942 366.883 695.484 364.596C698.277 362.056 700.818 359.769 703.104 356.975C702.088 360.531 701.58 364.596 703.612 367.645C706.914 373.233 714.789 373.995 720.886 373.233C724.696 372.471 728.253 370.947 738.414 365.359C741.717 363.58 743.749 362.056 748.066 359.261C757.466 353.165 765.088 346.305 773.47 338.94C774.74 337.923 772.709 335.891 771.438 335.383Z" fill="#7B43DF"/>
<path d="M771.438 335.383C770.168 334.62 768.136 334.367 766.357 335.383C755.688 344.781 745.526 354.181 733.08 360.785C727.745 363.58 723.426 366.12 718.345 367.645C712.249 369.423 708.438 365.359 710.216 360.785L710.978 358.245C711.741 355.451 713.265 352.148 714.789 349.1C715.297 347.829 716.313 346.56 717.076 345.289C721.902 337.923 722.918 337.669 724.95 335.129C725.205 334.62 725.713 334.367 725.966 333.859C726.474 333.349 727.237 332.335 727.237 331.825V331.572C727.237 328.777 721.394 327 719.616 329.032C718.092 331.319 715.806 333.349 714.026 335.636L713.773 335.891L705.898 343.004L691.164 358.753C688.878 361.293 686.338 363.835 683.544 366.12C681.512 368.152 679.48 369.423 676.685 370.947C676.432 371.2 676.177 371.2 675.922 371.2C675.161 369.169 675.669 366.883 676.432 364.851C677.956 360.024 681.257 356.213 684.305 352.657C687.354 348.847 691.164 345.544 694.213 343.004C697.769 340.464 701.58 338.177 705.644 336.399C705.136 336.653 706.406 336.144 706.661 336.144C706.914 335.891 707.422 336.144 707.677 335.891H707.93C708.438 336.144 708.692 336.399 709.201 336.399C710.725 337.16 712.757 337.16 713.52 335.383C714.789 332.588 711.486 330.811 709.201 330.048C707.168 329.795 704.628 330.301 702.85 330.811C701.178 331.368 699.636 331.965 698.149 332.588C697.018 332.327 695.874 332.457 694.982 333.349C695.49 332.588 694.982 333.349 694.474 333.605L693.204 334.367C691.934 335.129 690.917 335.891 689.902 336.907L680.504 343.765C672.882 349.355 665.261 354.181 657.386 359.261L646.209 365.865L641.382 368.407C640.112 368.915 639.096 369.423 637.825 369.676C637.318 368.407 637.318 366.883 637.572 365.865C637.825 363.327 638.588 361.548 639.604 359.261C641.382 354.689 644.177 350.624 646.464 346.305C648.494 342.241 650.528 337.923 650.273 333.349C649.765 331.064 646.209 329.795 644.43 330.556C636.556 332.843 629.697 338.177 624.108 344.02L626.141 339.447L628.426 334.62L629.95 332.588C630.46 332.335 630.46 332.081 630.713 332.081C632.237 332.081 633.508 331.064 632.745 329.285C631.984 327.761 629.697 327 628.173 327C624.108 327 621.821 331.572 620.297 334.62C617.757 338.431 616.486 341.988 614.201 345.289C607.85 354.435 602.008 363.835 597.434 374.504C596.926 375.773 598.45 377.044 599.468 377.297C600.992 378.059 603.278 378.568 604.293 377.044C604.548 376.789 604.802 376.535 605.056 376.535C611.914 368.915 617.757 360.531 624.362 353.165C629.442 347.829 635.285 341.988 641.89 338.177C641.129 340.717 639.858 342.749 638.842 344.781C636.048 349.355 633.253 353.672 631.474 358.245C629.697 362.309 628.426 366.883 630.713 370.947C632.745 374.249 635.794 375.773 639.858 375.011C642.906 374.504 646.209 373.233 649.002 371.709C652.56 370.185 655.861 368.152 659.418 366.12C662.96 363.975 666.394 361.824 669.774 359.657C668.673 361.976 667.901 364.437 667.793 367.136C667.793 369.931 668.81 372.98 671.097 374.757C674.398 377.044 677.956 377.044 681.004 375.773C683.797 374.757 686.084 373.487 688.116 371.709C690.657 369.931 692.942 366.883 695.484 364.596C698.277 362.056 700.818 359.769 703.104 356.975C702.088 360.531 701.58 364.596 703.612 367.645C706.914 373.233 714.789 373.995 720.886 373.233C724.696 372.471 728.253 370.947 738.414 365.359C741.717 363.58 743.749 362.056 748.066 359.261C757.466 353.165 765.088 346.305 773.47 338.94C774.74 337.923 772.709 335.891 771.438 335.383Z" stroke="#7B43DF" stroke-width="13.3333" stroke-miterlimit="10" stroke-linecap="round" stroke-linejoin="round"/>
<path d="M1088.94 288.806C1095.29 280.676 1102.91 272.04 1111.04 265.182L1113.84 262.895C1113.84 262.895 1114.34 262.64 1114.09 262.895C1113.84 263.403 1113.58 263.658 1113.58 263.911C1112.31 266.198 1110.03 270.008 1108.25 272.04L1105.96 275.088C1099.36 285.25 1093.51 292.616 1083.35 304.048C1078.27 309.636 1072.43 315.226 1067.1 320.052L1066.59 320.306C1073.19 309.383 1080.81 298.967 1088.94 288.806ZM879.893 365.523L878.369 365.27L877.352 364.762C877.352 364.762 876.845 364.507 876.59 364.507C875.828 364.252 875.065 363.999 874.304 363.491L873.288 362.983L870.493 360.951L869.477 360.188C869.477 360.188 868.969 359.427 868.716 359.427C868.206 358.664 867.7 358.156 867.192 357.648C866.682 357.14 866.429 356.632 865.921 356.124C865.709 355.559 865.288 355.122 864.765 354.782C873.049 350.166 880.524 345.102 887.01 340.628L887.353 340.394C884.056 348.606 882.173 356.86 879.893 365.523V365.523ZM829.6 344.184C832.902 339.866 836.966 336.055 841.032 332.499C841.032 332.499 842.048 331.738 842.301 331.483C843.572 330.467 844.588 329.451 846.112 328.435C848.653 326.656 850.938 325.387 853.225 324.878C853.48 326.656 852.464 328.435 852.464 328.435C844.08 341.136 827.313 347.487 828.33 345.963L829.6 344.184ZM1185.47 328.688C1184.2 327.927 1182.17 327.672 1180.39 328.688C1169.72 338.088 1159.56 347.487 1147.11 354.092C1141.78 356.887 1137.46 359.427 1132.38 360.951C1126.28 362.728 1122.47 358.664 1124.25 354.092L1125.01 351.552C1125.77 348.758 1127.3 345.455 1128.82 342.407C1129.33 341.136 1130.34 339.866 1131.11 338.596C1135.93 331.23 1136.95 330.975 1138.98 328.435C1139.24 327.927 1139.74 327.672 1140 327.164C1140.51 326.656 1141.27 325.64 1141.27 325.132V324.878C1141.27 322.084 1135.43 320.306 1133.65 322.338C1132.12 324.624 1129.84 326.656 1128.06 328.943L1127.8 329.196L1119.93 336.31L1105.2 352.059C1102.91 354.6 1100.37 357.14 1097.58 359.427C1095.54 361.459 1093.51 362.728 1090.72 364.252C1090.46 364.507 1090.21 364.507 1089.95 364.507C1089.19 362.475 1089.7 360.188 1090.46 358.156C1091.99 353.33 1095.29 349.519 1098.34 345.963C1101.39 342.152 1105.2 338.85 1108.24 336.31C1111.8 333.77 1115.61 331.483 1119.68 329.706C1119.17 329.959 1120.44 329.451 1120.69 329.451C1120.95 329.196 1121.45 329.451 1121.71 329.196H1121.96C1122.47 329.451 1122.72 329.706 1123.23 329.706C1124.76 330.467 1126.79 330.467 1127.55 328.688C1128.82 325.895 1125.52 324.116 1123.23 323.354C1121.2 323.1 1118.66 323.608 1116.88 324.116C1115.24 324.664 1113.72 325.25 1112.26 325.859C1111.16 325.428 1110 325.346 1109.26 325.895C1107.37 327.474 1105.39 329.078 1103.42 330.718C1103.42 330.719 1103.42 330.719 1103.42 330.72C1100.43 332.856 1097.7 335.254 1095.14 337.824C1092.27 340.231 1089.34 342.571 1086.4 344.692C1084.12 346.218 1082.08 347.995 1080.05 349.266C1073.19 354.092 1068.11 357.903 1058.97 362.475C1057.44 363.236 1056.68 363.746 1054.39 364.507C1051.85 365.776 1047.54 366.539 1047.79 365.27V364.252C1047.79 362.983 1047.79 362.728 1048.04 361.712C1048.8 355.616 1051.34 349.774 1053.89 344.184L1057.19 337.072V337.326C1059.98 335.548 1063.28 332.754 1065.82 330.467L1068.11 328.435C1073.95 323.354 1082.34 315.732 1087.42 310.398C1095.8 301.508 1103.93 291.346 1111.04 281.439L1112.57 279.152C1114.85 275.596 1116.89 272.803 1119.68 267.722V267.468C1121.2 264.674 1123.24 260.61 1121.71 257.815C1120.19 256.036 1117.14 254.258 1114.6 254.766C1114.85 254.766 1112.57 255.782 1111.8 256.29L1110.79 256.799L1108.5 258.576C1102.41 262.895 1097.58 268.23 1097.58 268.23L1093.26 272.548C1084.88 281.439 1076.49 292.363 1069.38 302.27C1063.67 310.478 1057.85 319.818 1052.77 329.314L1047.03 331.991C1041.19 334.278 1035.35 336.31 1029.25 337.579H1028.74V337.326C1030.27 333.516 1031.28 329.451 1028.74 325.895C1026.71 322.847 1022.65 321.83 1019.34 323.608C1017.31 324.878 1015.53 327.164 1014.77 329.451C1014.01 330.975 1014.01 333.007 1014.01 334.531C1014.01 336.818 1014.52 339.104 1016.04 340.883C1016.3 341.136 1016.55 341.39 1016.8 341.644C1016.3 342.407 1015.53 343.168 1014.77 344.184C1012.23 347.742 1009.18 351.043 1006.39 354.346C1003.09 357.648 1000.29 360.442 996.228 362.475L994.958 363.236C995.721 362.728 994.45 363.491 994.197 363.491C993.688 363.491 993.434 363.746 992.926 363.746C992.164 363.746 990.893 363.746 990.893 362.475V361.459V360.698V360.442C990.893 359.172 991.402 357.903 991.656 356.887C993.18 351.043 996.482 345.708 1000.04 341.136C1003.6 336.564 1007.4 332.499 1011.72 328.943C1014.01 328.943 1015.03 326.148 1012.99 324.624C1011.72 323.608 1009.44 323.1 1007.91 323.862C1005.95 325.006 1004.11 326.322 1002.35 327.747C1002.17 327.802 1001.98 327.847 1001.82 327.927C999.534 330.214 998.772 330.214 995.47 333.262L988.357 338.85C988.102 339.104 987.086 339.866 987.086 339.866L973.878 349.011C969.305 352.059 964.733 354.6 959.905 357.394L956.857 358.918L951.014 361.459C950.253 361.712 949.236 362.475 944.664 363.999C936.534 366.539 937.044 364.507 937.044 363.746C937.044 361.967 937.297 360.442 937.805 359.427C938.821 356.378 939.584 356.124 943.394 350.535C945.934 346.979 948.728 343.676 951.777 340.375C953.809 338.088 954.57 337.326 956.604 335.294L958.636 333.77C960.16 332.246 962.7 330.72 964.225 329.706C964.733 329.196 965.749 328.943 966.257 328.435C967.273 329.706 969.813 330.467 970.829 328.943C971.592 327.927 972.098 326.911 971.845 325.895C971.592 324.116 969.813 323.1 968.289 322.592C962.716 320.8 956.526 325.246 952.028 329.332C949.242 331.546 946.484 334.378 943.908 336.31L935.525 342.914C930.444 346.724 926.126 350.028 920.792 353.33C916.218 356.124 914.694 357.14 909.36 359.935C908.344 360.442 907.328 360.951 902.756 362.475C897.929 363.999 893.102 365.776 888.529 365.776C888.782 365.015 888.782 364.507 889.038 363.999C890.308 359.172 891.578 354.092 893.356 349.519L895.897 342.407L897.421 339.104L898.182 337.579L898.945 336.055L902.756 330.467L905.041 327.927C906.312 326.656 907.073 326.148 907.328 325.895L910.376 323.862L912.154 323.1C911.392 323.608 912.154 323.1 912.408 323.1L913.425 322.592H913.17C914.694 322.084 915.71 321.068 914.949 319.543C913.933 317.512 910.884 316.495 908.598 317.003C902.886 318.958 898.34 322.696 894.729 327.26C893.272 327.867 891.872 328.82 890.821 329.451C888.281 331.483 884.725 333.516 881.93 335.548C868.213 344.947 856.781 352.314 844.334 357.903C839 360.188 834.681 361.712 828.584 362.222H826.298C825.789 362.222 825.282 361.967 824.773 361.712C822.996 360.188 823.249 358.411 823.249 356.632L823.502 355.616C823.502 355.363 823.758 355.107 823.758 354.854C823.758 354.6 823.758 354.346 824.012 354.092C824.265 352.822 824.773 351.806 825.282 350.79C825.536 350.535 825.536 350.535 825.789 350.282C828.838 351.552 832.902 351.043 835.442 349.774C839.761 348.248 844.334 345.455 847.89 342.914C851.701 340.12 855.004 337.072 857.544 333.516C860.084 329.959 862.37 324.878 858.305 321.576C853.48 318.019 846.874 320.56 842.81 323.1C837.984 325.895 833.665 329.451 830.362 332.754C826.552 336.31 822.488 341.136 819.693 345.455C817.406 349.266 814.866 354.6 815.882 359.172C817.406 363.999 822.234 366.794 827.06 367.302C831.124 367.556 835.442 367.047 839.253 366.032C845.54 364.459 852.814 361.103 858.98 357.89C859.228 358.39 859.522 358.871 859.824 359.172C860.333 359.935 861.348 360.951 862.11 361.712C863.889 363.746 865.666 365.523 867.192 367.556L872.78 372.636C874.05 374.16 875.574 375.684 877.352 376.7C878.876 377.463 880.909 378.224 882.686 377.463C883.449 377.463 884.21 377.208 884.465 376.7C885.228 375.939 885.989 374.922 886.244 373.906C886.497 373.144 886.752 372.382 887.005 371.62C889.038 371.62 891.324 371.366 893.356 371.112C903.517 369.587 909.36 366.794 918.505 361.967C922.832 359.563 926.94 357.047 930.925 354.442C929.729 356.766 928.581 359.351 928.406 361.459C928.152 365.776 931.962 368.318 935.518 369.587C940.092 371.112 945.68 370.35 949.998 368.826C963.364 364.287 975.222 356.995 985.582 349.931C984.733 351.94 984.017 354.002 983.528 356.124C983.018 358.156 982.765 360.442 983.273 362.475C983.781 365.015 985.305 366.794 987.338 368.063C991.656 370.604 996.737 369.587 1001.06 367.81C1005.63 366.032 1009.44 362.475 1012.74 358.918C1015.53 355.87 1018.07 352.822 1020.62 349.519C1022.14 347.742 1023.41 345.963 1024.68 344.184C1027.73 343.931 1031.03 343.168 1033.32 342.914C1038.46 341.843 1043.42 340.214 1048.2 338.36C1047.72 339.371 1047.23 340.384 1046.77 341.39C1044.49 346.724 1041.95 352.822 1040.93 358.664C1040.68 359.935 1040.68 360.698 1040.42 361.967V362.983C1040.17 365.776 1041.18 369.08 1042.46 370.095C1048.04 373.144 1055.16 370.604 1059.47 369.08C1064.3 367.302 1066.84 365.523 1069.89 363.746L1072.43 362.222C1076.05 359.892 1079.54 357.498 1082.93 355.072C1082.32 356.77 1081.9 358.544 1081.82 360.442C1081.82 363.236 1082.84 366.286 1085.13 368.063C1088.43 370.35 1091.99 370.35 1095.03 369.08C1097.83 368.063 1100.12 366.794 1102.15 365.015C1104.69 363.236 1106.97 360.188 1109.51 357.903C1112.31 355.363 1114.85 353.076 1117.14 350.282C1116.12 353.838 1115.61 357.903 1117.64 360.951C1120.95 366.539 1128.82 367.302 1134.92 366.539C1138.73 365.776 1142.28 364.252 1152.44 358.664C1155.75 356.887 1157.78 355.363 1162.1 352.568C1171.5 346.471 1179.12 339.612 1187.5 332.246C1188.77 331.23 1186.74 329.196 1185.47 328.688" fill="#7B43DF"/>
<path d="M1088.94 288.806C1095.29 280.676 1102.91 272.04 1111.04 265.182L1113.84 262.895C1113.84 262.895 1114.34 262.64 1114.09 262.895C1113.84 263.403 1113.58 263.658 1113.58 263.911C1112.31 266.198 1110.03 270.008 1108.25 272.04L1105.96 275.088C1099.36 285.25 1093.51 292.616 1083.35 304.048C1078.27 309.636 1072.43 315.226 1067.1 320.052L1066.59 320.306C1073.19 309.383 1080.81 298.967 1088.94 288.806ZM879.893 365.523L878.369 365.27L877.352 364.762C877.352 364.762 876.845 364.507 876.59 364.507C875.828 364.252 875.065 363.999 874.304 363.491L873.288 362.983L870.493 360.951L869.477 360.188C869.477 360.188 868.969 359.427 868.716 359.427C868.206 358.664 867.7 358.156 867.192 357.648C866.682 357.14 866.429 356.632 865.921 356.124C865.709 355.559 865.288 355.122 864.765 354.782C873.049 350.166 880.524 345.102 887.01 340.628L887.353 340.394C884.056 348.606 882.173 356.86 879.893 365.523V365.523ZM829.6 344.184C832.902 339.866 836.966 336.055 841.032 332.499C841.032 332.499 842.048 331.738 842.301 331.483C843.572 330.467 844.588 329.451 846.112 328.435C848.653 326.656 850.938 325.387 853.225 324.878C853.48 326.656 852.464 328.435 852.464 328.435C844.08 341.136 827.313 347.487 828.33 345.963L829.6 344.184ZM1185.47 328.688C1184.2 327.927 1182.17 327.672 1180.39 328.688C1169.72 338.088 1159.56 347.487 1147.11 354.092C1141.78 356.887 1137.46 359.427 1132.38 360.951C1126.28 362.728 1122.47 358.664 1124.25 354.092L1125.01 351.552C1125.77 348.758 1127.3 345.455 1128.82 342.407C1129.33 341.136 1130.34 339.866 1131.11 338.596C1135.93 331.23 1136.95 330.975 1138.98 328.435C1139.24 327.927 1139.74 327.672 1140 327.164C1140.51 326.656 1141.27 325.64 1141.27 325.132V324.878C1141.27 322.084 1135.43 320.306 1133.65 322.338C1132.12 324.624 1129.84 326.656 1128.06 328.943L1127.8 329.196L1119.93 336.31L1105.2 352.059C1102.91 354.6 1100.37 357.14 1097.58 359.427C1095.54 361.459 1093.51 362.728 1090.72 364.252C1090.46 364.507 1090.21 364.507 1089.95 364.507C1089.19 362.475 1089.7 360.188 1090.46 358.156C1091.99 353.33 1095.29 349.519 1098.34 345.963C1101.39 342.152 1105.2 338.85 1108.24 336.31C1111.8 333.77 1115.61 331.483 1119.68 329.706C1119.17 329.959 1120.44 329.451 1120.69 329.451C1120.95 329.196 1121.45 329.451 1121.71 329.196H1121.96C1122.47 329.451 1122.72 329.706 1123.23 329.706C1124.76 330.467 1126.79 330.467 1127.55 328.688C1128.82 325.895 1125.52 324.116 1123.23 323.354C1121.2 323.1 1118.66 323.608 1116.88 324.116C1115.24 324.664 1113.72 325.25 1112.26 325.859C1111.16 325.428 1110 325.346 1109.26 325.895C1107.37 327.474 1105.39 329.078 1103.42 330.718C1103.42 330.719 1103.42 330.719 1103.42 330.72C1100.43 332.856 1097.7 335.254 1095.14 337.824C1092.27 340.231 1089.34 342.571 1086.4 344.692C1084.12 346.218 1082.08 347.995 1080.05 349.266C1073.19 354.092 1068.11 357.903 1058.97 362.475C1057.44 363.236 1056.68 363.746 1054.39 364.507C1051.85 365.776 1047.54 366.539 1047.79 365.27V364.252C1047.79 362.983 1047.79 362.728 1048.04 361.712C1048.8 355.616 1051.34 349.774 1053.89 344.184L1057.19 337.072V337.326C1059.98 335.548 1063.28 332.754 1065.82 330.467L1068.11 328.435C1073.95 323.354 1082.34 315.732 1087.42 310.398C1095.8 301.508 1103.93 291.346 1111.04 281.439L1112.57 279.152C1114.85 275.596 1116.89 272.803 1119.68 267.722V267.468C1121.2 264.674 1123.24 260.61 1121.71 257.815C1120.19 256.036 1117.14 254.258 1114.6 254.766C1114.85 254.766 1112.57 255.782 1111.8 256.29L1110.79 256.799L1108.5 258.576C1102.41 262.895 1097.58 268.23 1097.58 268.23L1093.26 272.548C1084.88 281.439 1076.49 292.363 1069.38 302.27C1063.67 310.478 1057.85 319.818 1052.77 329.314L1047.03 331.991C1041.19 334.278 1035.35 336.31 1029.25 337.579H1028.74V337.326C1030.27 333.516 1031.28 329.451 1028.74 325.895C1026.71 322.847 1022.65 321.83 1019.34 323.608C1017.31 324.878 1015.53 327.164 1014.77 329.451C1014.01 330.975 1014.01 333.007 1014.01 334.531C1014.01 336.818 1014.52 339.104 1016.04 340.883C1016.3 341.136 1016.55 341.39 1016.8 341.644C1016.3 342.407 1015.53 343.168 1014.77 344.184C1012.23 347.742 1009.18 351.043 1006.39 354.346C1003.09 357.648 1000.29 360.442 996.228 362.475L994.958 363.236C995.721 362.728 994.45 363.491 994.197 363.491C993.688 363.491 993.434 363.746 992.926 363.746C992.164 363.746 990.893 363.746 990.893 362.475V361.459V360.698V360.442C990.893 359.172 991.402 357.903 991.656 356.887C993.18 351.043 996.482 345.708 1000.04 341.136C1003.6 336.564 1007.4 332.499 1011.72 328.943C1014.01 328.943 1015.03 326.148 1012.99 324.624C1011.72 323.608 1009.44 323.1 1007.91 323.862C1005.95 325.006 1004.11 326.322 1002.35 327.747C1002.17 327.802 1001.98 327.847 1001.82 327.927C999.534 330.214 998.772 330.214 995.47 333.262L988.357 338.85C988.102 339.104 987.086 339.866 987.086 339.866L973.878 349.011C969.305 352.059 964.733 354.6 959.905 357.394L956.857 358.918L951.014 361.459C950.253 361.712 949.236 362.475 944.664 363.999C936.534 366.539 937.044 364.507 937.044 363.746C937.044 361.967 937.297 360.442 937.805 359.427C938.821 356.378 939.584 356.124 943.394 350.535C945.934 346.979 948.728 343.676 951.777 340.375C953.809 338.088 954.57 337.326 956.604 335.294L958.636 333.77C960.16 332.246 962.7 330.72 964.225 329.706C964.733 329.196 965.749 328.943 966.257 328.435C967.273 329.706 969.813 330.467 970.829 328.943C971.592 327.927 972.098 326.911 971.845 325.895C971.592 324.116 969.813 323.1 968.289 322.592C962.716 320.8 956.526 325.246 952.028 329.332C949.242 331.546 946.484 334.378 943.908 336.31L935.525 342.914C930.444 346.724 926.126 350.028 920.792 353.33C916.218 356.124 914.694 357.14 909.36 359.935C908.344 360.442 907.328 360.951 902.756 362.475C897.929 363.999 893.102 365.776 888.529 365.776C888.782 365.015 888.782 364.507 889.038 363.999C890.308 359.172 891.578 354.092 893.356 349.519L895.897 342.407L897.421 339.104L898.182 337.579L898.945 336.055L902.756 330.467L905.041 327.927C906.312 326.656 907.073 326.148 907.328 325.895L910.376 323.862L912.154 323.1C911.392 323.608 912.154 323.1 912.408 323.1L913.425 322.592H913.17C914.694 322.084 915.71 321.068 914.949 319.543C913.933 317.512 910.884 316.495 908.598 317.003C902.886 318.958 898.34 322.696 894.729 327.26C893.272 327.867 891.872 328.82 890.821 329.451C888.281 331.483 884.725 333.516 881.93 335.548C868.213 344.947 856.781 352.314 844.334 357.903C839 360.188 834.681 361.712 828.584 362.222H826.298C825.789 362.222 825.282 361.967 824.773 361.712C822.996 360.188 823.249 358.411 823.249 356.632L823.502 355.616C823.502 355.363 823.758 355.107 823.758 354.854C823.758 354.6 823.758 354.346 824.012 354.092C824.265 352.822 824.773 351.806 825.282 350.79C825.536 350.535 825.536 350.535 825.789 350.282C828.838 351.552 832.902 351.043 835.442 349.774C839.761 348.248 844.334 345.455 847.89 342.914C851.701 340.12 855.004 337.072 857.544 333.516C860.084 329.959 862.37 324.878 858.305 321.576C853.48 318.019 846.874 320.56 842.81 323.1C837.984 325.895 833.665 329.451 830.362 332.754C826.552 336.31 822.488 341.136 819.693 345.455C817.406 349.266 814.866 354.6 815.882 359.172C817.406 363.999 822.234 366.794 827.06 367.302C831.124 367.556 835.442 367.047 839.253 366.032C845.54 364.459 852.814 361.103 858.98 357.89C859.228 358.39 859.522 358.871 859.824 359.172C860.333 359.935 861.348 360.951 862.11 361.712C863.889 363.746 865.666 365.523 867.192 367.556L872.78 372.636C874.05 374.16 875.574 375.684 877.352 376.7C878.876 377.463 880.909 378.224 882.686 377.463C883.449 377.463 884.21 377.208 884.465 376.7C885.228 375.939 885.989 374.922 886.244 373.906C886.497 373.144 886.752 372.382 887.005 371.62C889.038 371.62 891.324 371.366 893.356 371.112C903.517 369.587 909.36 366.794 918.505 361.967C922.832 359.563 926.94 357.047 930.925 354.442C929.729 356.766 928.581 359.351 928.406 361.459C928.152 365.776 931.962 368.318 935.518 369.587C940.092 371.112 945.68 370.35 949.998 368.826C963.364 364.287 975.222 356.995 985.582 349.931C984.733 351.94 984.017 354.002 983.528 356.124C983.018 358.156 982.765 360.442 983.273 362.475C983.781 365.015 985.305 366.794 987.338 368.063C991.656 370.604 996.737 369.587 1001.06 367.81C1005.63 366.032 1009.44 362.475 1012.74 358.918C1015.53 355.87 1018.07 352.822 1020.62 349.519C1022.14 347.742 1023.41 345.963 1024.68 344.184C1027.73 343.931 1031.03 343.168 1033.32 342.914C1038.46 341.843 1043.42 340.214 1048.2 338.36C1047.72 339.371 1047.23 340.384 1046.77 341.39C1044.49 346.724 1041.95 352.822 1040.93 358.664C1040.68 359.935 1040.68 360.698 1040.42 361.967V362.983C1040.17 365.776 1041.18 369.08 1042.46 370.095C1048.04 373.144 1055.16 370.604 1059.47 369.08C1064.3 367.302 1066.84 365.523 1069.89 363.746L1072.43 362.222C1076.05 359.892 1079.54 357.498 1082.93 355.072C1082.32 356.77 1081.9 358.544 1081.82 360.442C1081.82 363.236 1082.84 366.286 1085.13 368.063C1088.43 370.35 1091.99 370.35 1095.03 369.08C1097.83 368.063 1100.12 366.794 1102.15 365.015C1104.69 363.236 1106.97 360.188 1109.51 357.903C1112.31 355.363 1114.85 353.076 1117.14 350.282C1116.12 353.838 1115.61 357.903 1117.64 360.951C1120.95 366.539 1128.82 367.302 1134.92 366.539C1138.73 365.776 1142.28 364.252 1152.44 358.664C1155.75 356.887 1157.78 355.363 1162.1 352.568C1171.5 346.471 1179.12 339.612 1187.5 332.246C1188.77 331.23 1186.74 329.196 1185.47 328.688V328.688Z" stroke="#7B43DF" stroke-width="13.3333" stroke-miterlimit="10" stroke-linecap="round" stroke-linejoin="round"/>
<path d="M1313.49 95.6121C1324.95 103.207 1336.46 106.563 1345.32 108.001L1347.7 103.939C1352.99 94.9081 1349.94 83.1868 1340.91 77.8921L1321.63 66.5921C1312.6 61.2975 1300.88 64.3548 1295.59 73.3855L1293.58 76.8068C1299.13 84.2028 1305.81 90.5228 1313.49 95.6121Z" fill="#7B43DF"/>
<path d="M1313.49 95.6121C1324.95 103.207 1336.46 106.563 1345.32 108.001L1347.7 103.939C1352.99 94.9081 1349.94 83.1868 1340.91 77.8921L1321.63 66.5921C1312.6 61.2975 1300.88 64.3548 1295.59 73.3855L1293.58 76.8068C1299.13 84.2028 1305.81 90.5228 1313.49 95.6121Z" stroke="#7B43DF" stroke-width="13.3333" stroke-miterlimit="10" stroke-linecap="round" stroke-linejoin="round"/>
<path d="M1218.34 256.726C1211.05 251.943 1204.57 246.161 1198.99 239.487C1198.27 242.157 1198.16 244.917 1198.61 247.575L1196.76 286.894C1196.44 293.711 1203.9 298.086 1209.69 294.477L1243.23 273.581C1245.61 272.702 1247.82 271.341 1249.71 269.558C1238.51 267.297 1227.81 262.942 1218.34 256.726Z" fill="#7B43DF"/>
<path d="M1218.34 256.726C1211.05 251.943 1204.57 246.161 1198.99 239.487C1198.27 242.157 1198.16 244.917 1198.61 247.575L1196.76 286.894C1196.44 293.711 1203.9 298.086 1209.69 294.477L1243.23 273.581C1245.61 272.702 1247.82 271.341 1249.71 269.558C1238.51 267.297 1227.81 262.942 1218.34 256.726Z" stroke="#7B43DF" stroke-width="13.3333" stroke-miterlimit="10" stroke-linecap="round" stroke-linejoin="round"/>
<path d="M1222.96 249.676C1234.55 257.277 1246.17 260.572 1255.06 261.953L1340.77 115.753C1329.35 113.478 1318.45 109.018 1308.83 102.642C1301.31 97.6625 1294.68 91.6091 1289 84.6211L1203.1 231.134C1208.66 238.432 1215.32 244.66 1222.96 249.676Z" fill="#7B43DF"/>
<path d="M1222.96 249.676C1234.55 257.277 1246.17 260.572 1255.06 261.953L1340.77 115.753C1329.35 113.478 1318.45 109.018 1308.83 102.642C1301.31 97.6625 1294.68 91.6091 1289 84.6211L1203.1 231.134C1208.66 238.432 1215.32 244.66 1222.96 249.676Z" stroke="#7B43DF" stroke-width="13.3333" stroke-miterlimit="10" stroke-linecap="round" stroke-linejoin="round"/>
<path d="M1318.82 91.6121C1330.28 99.2068 1341.79 102.563 1350.65 104.001L1353.03 99.9388C1358.33 90.9081 1355.27 79.1868 1346.24 73.8921L1326.97 62.5921C1317.93 57.2975 1306.21 60.3548 1300.92 69.3855L1298.91 72.8068C1304.46 80.2028 1311.14 86.5228 1318.82 91.6121Z" fill="#7B43DF"/>
<path d="M1318.82 91.6121C1330.28 99.2068 1341.79 102.563 1350.65 104.001L1353.03 99.9388C1358.33 90.9081 1355.27 79.1868 1346.24 73.8921L1326.97 62.5921C1317.93 57.2975 1306.21 60.3548 1300.92 69.3855L1298.91 72.8068C1304.46 80.2028 1311.14 86.5228 1318.82 91.6121Z" stroke="#7B43DF" stroke-width="13.3333" stroke-miterlimit="10" stroke-linecap="round" stroke-linejoin="round"/>
<path d="M1223.67 252.726C1216.38 247.943 1209.9 242.161 1204.32 235.487C1203.6 238.157 1203.5 240.917 1203.94 243.575L1202.09 282.894C1201.77 289.711 1209.24 294.086 1215.03 290.477L1248.56 269.581C1250.94 268.702 1253.16 267.341 1255.05 265.558C1243.85 263.297 1233.14 258.942 1223.67 252.726Z" fill="#7B43DF"/>
<path d="M1223.67 252.726C1216.38 247.943 1209.9 242.161 1204.32 235.487C1203.6 238.157 1203.5 240.917 1203.94 243.575L1202.09 282.894C1201.77 289.711 1209.24 294.086 1215.03 290.477L1248.56 269.581C1250.94 268.702 1253.16 267.341 1255.05 265.558C1243.85 263.297 1233.14 258.942 1223.67 252.726Z" stroke="#7B43DF" stroke-width="13.3333" stroke-miterlimit="10" stroke-linecap="round" stroke-linejoin="round"/>
<path d="M1228.3 245.676C1239.88 253.277 1251.5 256.572 1260.39 257.953L1346.11 111.753C1334.69 109.478 1323.78 105.018 1314.16 98.6425C1306.64 93.6625 1300.01 87.6091 1294.33 80.6211L1208.43 227.134C1213.99 234.432 1220.66 240.66 1228.3 245.676Z" fill="#7B43DF"/>
<path d="M1228.3 245.676C1239.88 253.277 1251.5 256.572 1260.39 257.953L1346.11 111.753C1334.69 109.478 1323.78 105.018 1314.16 98.6425C1306.64 93.6625 1300.01 87.6091 1294.33 80.6211L1208.43 227.134C1213.99 234.432 1220.66 240.66 1228.3 245.676Z" stroke="#7B43DF" stroke-width="13.3333" stroke-miterlimit="10" stroke-linecap="round" stroke-linejoin="round"/>
<path d="M782.823 335.383C781.552 334.62 779.52 334.367 777.742 335.383C767.072 344.781 756.911 354.181 744.464 360.785C739.13 363.58 734.811 366.12 729.73 367.645C723.634 369.423 719.823 365.359 721.6 360.785L722.363 358.245C723.126 355.451 724.65 352.148 726.174 349.1C726.682 347.829 727.698 346.56 728.46 345.289C733.287 337.923 734.303 337.669 736.335 335.129C736.59 334.62 737.098 334.367 737.351 333.859C737.859 333.349 738.622 332.335 738.622 331.825V331.572C738.622 328.777 732.779 327 731 329.032C729.476 331.319 727.191 333.349 725.411 335.636L725.158 335.891L717.283 343.004L702.548 358.753C700.263 361.293 697.723 363.835 694.928 366.12C692.896 368.152 690.864 369.423 688.07 370.947C687.816 371.2 687.562 371.2 687.307 371.2C686.546 369.169 687.054 366.883 687.816 364.851C689.34 360.024 692.642 356.213 695.69 352.657C698.739 348.847 702.548 345.544 705.598 343.004C709.154 340.464 712.964 338.177 717.028 336.399C716.522 336.653 717.791 336.144 718.046 336.144C718.299 335.891 718.807 336.144 719.062 335.891H719.315C719.823 336.144 720.076 336.399 720.586 336.399C722.11 337.16 724.142 337.16 724.904 335.383C726.174 332.588 722.871 330.811 720.586 330.048C718.552 329.795 716.012 330.301 714.235 330.811C712.563 331.368 711.02 331.965 709.534 332.588C708.403 332.327 707.259 332.457 706.367 333.349C706.875 332.588 706.367 333.349 705.859 333.605L704.588 334.367C703.319 335.129 702.302 335.891 701.287 336.907L691.888 343.765C684.267 349.355 676.646 354.181 668.771 359.261L657.594 365.865L652.767 368.407C651.496 368.915 650.48 369.423 649.21 369.676C648.703 368.407 648.703 366.883 648.956 365.865C649.21 363.327 649.972 361.548 650.988 359.261C652.767 354.689 655.562 350.624 657.848 346.305C659.879 342.241 661.912 337.923 661.658 333.349C661.15 331.064 657.594 329.795 655.815 330.556C647.94 332.843 641.082 338.177 635.492 344.02L637.526 339.447L639.811 334.62L641.335 332.588C641.844 332.335 641.844 332.081 642.098 332.081C643.622 332.081 644.892 331.064 644.13 329.285C643.368 327.761 641.082 327 639.558 327C635.492 327 633.206 331.572 631.682 334.62C629.142 338.431 627.871 341.988 625.586 345.289C619.235 354.435 613.392 363.835 608.819 374.504C608.311 375.773 609.835 377.044 610.852 377.297C612.376 378.059 614.663 378.568 615.678 377.044C615.932 376.789 616.187 376.535 616.44 376.535C623.299 368.915 629.142 360.531 635.747 353.165C640.827 347.829 646.67 341.988 653.275 338.177C652.514 340.717 651.243 342.749 650.227 344.781C647.432 349.355 644.638 353.672 642.859 358.245C641.082 362.309 639.811 366.883 642.098 370.947C644.13 374.249 647.179 375.773 651.243 375.011C654.291 374.504 657.594 373.233 660.387 371.709C663.944 370.185 667.246 368.152 670.803 366.12C674.344 363.975 677.779 361.824 681.159 359.657C680.058 361.976 679.286 364.437 679.178 367.136C679.178 369.931 680.195 372.98 682.482 374.757C685.783 377.044 689.34 377.044 692.388 375.773C695.182 374.757 697.468 373.487 699.5 371.709C702.042 369.931 704.327 366.883 706.868 364.596C709.662 362.056 712.203 359.769 714.488 356.975C713.472 360.531 712.964 364.596 714.996 367.645C718.299 373.233 726.174 373.995 732.271 373.233C736.08 372.471 739.638 370.947 749.799 365.359C753.102 363.58 755.134 362.056 759.451 359.261C768.851 353.165 776.472 346.305 784.855 338.94C786.126 337.923 784.094 335.891 782.823 335.383Z" fill="white"/>
<path d="M1100.33 288.806C1106.68 280.676 1114.3 272.04 1122.43 265.182L1125.22 262.895C1125.22 262.895 1125.73 262.64 1125.47 262.895C1125.22 263.403 1124.97 263.658 1124.97 263.911C1123.7 266.198 1121.41 270.008 1119.63 272.04L1117.35 275.088C1110.74 285.25 1104.9 292.616 1094.74 304.048C1089.66 309.636 1083.81 315.226 1078.48 320.052L1077.97 320.306C1084.58 309.383 1092.2 298.967 1100.33 288.806ZM891.277 365.523L889.754 365.27L888.736 364.762C888.736 364.762 888.229 364.507 887.975 364.507C887.212 364.252 886.449 363.999 885.688 363.491L884.672 362.983L881.877 360.951L880.861 360.188C880.861 360.188 880.353 359.427 880.1 359.427C879.591 358.664 879.084 358.156 878.576 357.648C878.067 357.14 877.813 356.632 877.305 356.124C877.093 355.559 876.673 355.122 876.149 354.782C884.433 350.166 891.908 345.102 898.395 340.628L898.737 340.394C895.44 348.606 893.557 356.86 891.277 365.523V365.523ZM840.984 344.184C844.287 339.866 848.351 336.055 852.416 332.499C852.416 332.499 853.432 331.738 853.685 331.483C854.956 330.467 855.972 329.451 857.496 328.435C860.037 326.656 862.323 325.387 864.61 324.878C864.864 326.656 863.848 328.435 863.848 328.435C855.464 341.136 838.697 347.487 839.715 345.963L840.984 344.184ZM1196.85 328.688C1195.58 327.927 1193.55 327.672 1191.77 328.688C1181.1 338.088 1170.94 347.487 1158.49 354.092C1153.16 356.887 1148.84 359.427 1143.76 360.951C1137.67 362.728 1133.85 358.664 1135.63 354.092L1136.39 351.552C1137.16 348.758 1138.68 345.455 1140.21 342.407C1140.71 341.136 1141.73 339.866 1142.49 338.596C1147.32 331.23 1148.33 330.975 1150.37 328.435C1150.62 327.927 1151.13 327.672 1151.38 327.164C1151.89 326.656 1152.65 325.64 1152.65 325.132V324.878C1152.65 322.084 1146.81 320.306 1145.03 322.338C1143.51 324.624 1141.22 326.656 1139.44 328.943L1139.19 329.196L1131.31 336.31L1116.58 352.059C1114.29 354.6 1111.75 357.14 1108.96 359.427C1106.93 361.459 1104.89 362.728 1102.1 364.252C1101.85 364.507 1101.59 364.507 1101.34 364.507C1100.58 362.475 1101.08 360.188 1101.85 358.156C1103.37 353.33 1106.67 349.519 1109.72 345.963C1112.77 342.152 1116.58 338.85 1119.63 336.31C1123.19 333.77 1127 331.483 1131.06 329.706C1130.55 329.959 1131.82 329.451 1132.08 329.451C1132.33 329.196 1132.84 329.451 1133.09 329.196H1133.35C1133.85 329.451 1134.11 329.706 1134.62 329.706C1136.14 330.467 1138.17 330.467 1138.93 328.688C1140.21 325.895 1136.9 324.116 1134.62 323.354C1132.58 323.1 1130.04 323.608 1128.27 324.116C1126.62 324.664 1125.11 325.25 1123.64 325.859C1122.54 325.428 1121.38 325.346 1120.65 325.895C1118.75 327.474 1116.78 329.078 1114.81 330.718C1114.81 330.719 1114.8 330.719 1114.8 330.72C1111.81 332.856 1109.08 335.254 1106.53 337.824C1103.65 340.231 1100.72 342.571 1097.79 344.692C1095.5 346.218 1093.47 347.995 1091.43 349.266C1084.58 354.092 1079.5 357.903 1070.35 362.475C1068.83 363.236 1068.07 363.746 1065.78 364.507C1063.24 365.776 1058.92 366.539 1059.17 365.27V364.252C1059.17 362.983 1059.17 362.728 1059.43 361.712C1060.19 355.616 1062.73 349.774 1065.27 344.184L1068.57 337.072V337.326C1071.37 335.548 1074.67 332.754 1077.21 330.467L1079.5 328.435C1085.34 323.354 1093.72 315.732 1098.8 310.398C1107.19 301.508 1115.31 291.346 1122.43 281.439L1123.95 279.152C1126.24 275.596 1128.27 272.803 1131.06 267.722V267.468C1132.59 264.674 1134.62 260.61 1133.1 257.815C1131.57 256.036 1128.52 254.258 1125.98 254.766C1126.24 254.766 1123.95 255.782 1123.19 256.29L1122.17 256.799L1119.89 258.576C1113.79 262.895 1108.96 268.23 1108.96 268.23L1104.65 272.548C1096.26 281.439 1087.88 292.363 1080.77 302.27C1075.06 310.478 1069.24 319.818 1064.16 329.314L1058.42 331.991C1052.58 334.278 1046.73 336.31 1040.64 337.579H1040.13V337.326C1041.65 333.516 1042.67 329.451 1040.13 325.895C1038.1 322.847 1034.03 321.83 1030.73 323.608C1028.7 324.878 1026.92 327.164 1026.16 329.451C1025.39 330.975 1025.39 333.007 1025.39 334.531C1025.39 336.818 1025.9 339.104 1027.43 340.883C1027.68 341.136 1027.93 341.39 1028.19 341.644C1027.68 342.407 1026.92 343.168 1026.16 344.184C1023.62 347.742 1020.57 351.043 1017.77 354.346C1014.47 357.648 1011.68 360.442 1007.61 362.475L1006.34 363.236C1007.11 362.728 1005.83 363.491 1005.58 363.491C1005.07 363.491 1004.82 363.746 1004.31 363.746C1003.55 363.746 1002.28 363.746 1002.28 362.475V361.459V360.698V360.442C1002.28 359.172 1002.79 357.903 1003.04 356.887C1004.56 351.043 1007.87 345.708 1011.42 341.136C1014.98 336.564 1018.79 332.499 1023.11 328.943C1025.39 328.943 1026.41 326.148 1024.38 324.624C1023.11 323.608 1020.82 323.1 1019.3 323.862C1017.34 325.006 1015.49 326.322 1013.73 327.747C1013.55 327.802 1013.36 327.847 1013.21 327.927C1010.92 330.214 1010.16 330.214 1006.85 333.262L999.741 338.85C999.487 339.104 998.471 339.866 998.471 339.866L985.263 349.011C980.689 352.059 976.117 354.6 971.289 357.394L968.241 358.918L962.399 361.459C961.637 361.712 960.62 362.475 956.048 363.999C947.919 366.539 948.428 364.507 948.428 363.746C948.428 361.967 948.681 360.442 949.189 359.427C950.205 356.378 950.968 356.124 954.779 350.535C957.319 346.979 960.113 343.676 963.161 340.375C965.193 338.088 965.955 337.326 967.988 335.294L970.02 333.77C971.544 332.246 974.084 330.72 975.609 329.706C976.117 329.196 977.133 328.943 977.641 328.435C978.657 329.706 981.197 330.467 982.213 328.943C982.976 327.927 983.483 326.911 983.229 325.895C982.976 324.116 981.197 323.1 979.673 322.592C974.1 320.8 967.911 325.246 963.412 329.332C960.627 331.546 957.868 334.378 955.292 336.31L946.909 342.914C941.828 346.724 937.511 350.028 932.176 353.33C927.603 356.124 926.079 357.14 920.744 359.935C919.728 360.442 918.712 360.951 914.14 362.475C909.313 363.999 904.487 365.776 899.913 365.776C900.167 365.015 900.167 364.507 900.423 363.999C901.692 359.172 902.963 354.092 904.74 349.519L907.281 342.407L908.805 339.104L909.567 337.579L910.329 336.055L914.14 330.467L916.426 327.927C917.696 326.656 918.459 326.148 918.712 325.895L921.76 323.862L923.539 323.1C922.776 323.608 923.539 323.1 923.792 323.1L924.809 322.592H924.555C926.079 322.084 927.095 321.068 926.334 319.543C925.318 317.512 922.268 316.495 919.983 317.003C914.271 318.958 909.724 322.696 906.113 327.26C904.656 327.867 903.256 328.82 902.205 329.451C899.665 331.483 896.109 333.516 893.315 335.548C879.597 344.947 868.166 352.314 855.719 357.903C850.384 360.188 846.065 361.712 839.968 362.222H837.683C837.173 362.222 836.667 361.967 836.157 361.712C834.38 360.188 834.633 358.411 834.633 356.632L834.887 355.616C834.887 355.363 835.143 355.107 835.143 354.854C835.143 354.6 835.143 354.346 835.396 354.092C835.649 352.822 836.158 351.806 836.667 350.79C836.92 350.535 836.92 350.535 837.173 350.282C840.223 351.552 844.287 351.043 846.827 349.774C851.145 348.248 855.719 345.455 859.275 342.914C863.085 340.12 866.388 337.072 868.928 333.516C871.468 329.959 873.755 324.878 869.689 321.576C864.864 318.019 858.259 320.56 854.195 323.1C849.368 325.895 845.049 329.451 841.747 332.754C837.936 336.31 833.872 341.136 831.078 345.455C828.791 349.266 826.251 354.6 827.267 359.172C828.791 363.999 833.619 366.794 838.444 367.302C842.508 367.556 846.827 367.047 850.637 366.032C856.924 364.459 864.199 361.103 870.364 357.89C870.612 358.39 870.907 358.871 871.208 359.172C871.717 359.935 872.732 360.951 873.495 361.712C875.274 363.746 877.051 365.523 878.576 367.556L884.164 372.636C885.435 374.16 886.959 375.684 888.736 376.7C890.26 377.463 892.293 378.224 894.071 377.463C894.833 377.463 895.595 377.208 895.849 376.7C896.612 375.939 897.373 374.922 897.628 373.906C897.881 373.144 898.136 372.382 898.389 371.62C900.423 371.62 902.708 371.366 904.74 371.112C914.901 369.587 920.744 366.794 929.889 361.967C934.216 359.563 938.324 357.047 942.309 354.442C941.115 356.766 939.965 359.351 939.791 361.459C939.536 365.776 943.347 368.318 946.903 369.587C951.476 371.112 957.064 370.35 961.383 368.826C974.748 364.287 986.607 356.995 996.967 349.931C996.117 351.94 995.401 354.002 994.912 356.124C994.403 358.156 994.149 360.442 994.657 362.475C995.165 365.015 996.689 366.794 998.723 368.063C1003.04 370.604 1008.12 369.587 1012.44 367.81C1017.01 366.032 1020.82 362.475 1024.12 358.918C1026.92 355.87 1029.46 352.822 1032 349.519C1033.52 347.742 1034.79 345.963 1036.06 344.184C1039.11 343.931 1042.41 343.168 1044.7 342.914C1049.85 341.843 1054.8 340.214 1059.59 338.36C1059.11 339.371 1058.61 340.384 1058.16 341.39C1055.87 346.724 1053.33 352.822 1052.31 358.664C1052.06 359.935 1052.06 360.698 1051.81 361.967V362.983C1051.55 365.776 1052.57 369.08 1053.84 370.095C1059.43 373.144 1066.54 370.604 1070.86 369.08C1075.69 367.302 1078.23 365.523 1081.27 363.746L1083.81 362.222C1087.44 359.892 1090.92 357.498 1094.31 355.072C1093.71 356.77 1093.29 358.544 1093.21 360.442C1093.21 363.236 1094.23 366.286 1096.51 368.063C1099.81 370.35 1103.37 370.35 1106.42 369.08C1109.21 368.063 1111.5 366.794 1113.53 365.015C1116.07 363.236 1118.36 360.188 1120.9 357.903C1123.69 355.363 1126.23 353.076 1128.52 350.282C1127.5 353.838 1127 357.903 1129.03 360.951C1132.33 366.539 1140.21 367.302 1146.3 366.539C1150.11 365.776 1153.67 364.252 1163.83 358.664C1167.13 356.887 1169.16 355.363 1173.48 352.568C1182.88 346.471 1190.5 339.612 1198.89 332.246C1200.16 331.23 1198.12 329.196 1196.85 328.688" fill="white"/>
<path d="M1326.1 90.619C1337.56 98.2136 1349.07 101.57 1357.93 103.008L1360.31 98.9456C1365.61 89.915 1362.55 78.1936 1353.52 72.899L1334.24 61.599C1325.21 56.3043 1313.49 59.3616 1308.2 68.3923L1306.19 71.8136C1311.74 79.2096 1318.42 85.5296 1326.1 90.619Z" fill="white"/>
<path d="M1230.95 251.733C1223.66 246.95 1217.18 241.168 1211.6 234.494C1210.88 237.164 1210.77 239.924 1211.22 242.582L1209.37 281.901C1209.05 288.718 1216.51 293.093 1222.31 289.484L1255.84 268.588C1258.22 267.709 1260.43 266.348 1262.33 264.565C1251.13 262.304 1240.42 257.949 1230.95 251.733Z" fill="white"/>
<path d="M1235.58 244.682C1247.16 252.283 1258.78 255.578 1267.67 256.959L1353.39 110.759C1341.97 108.485 1331.06 104.025 1321.44 97.6488C1313.92 92.6688 1307.29 86.6155 1301.61 79.6275L1215.71 226.141C1221.27 233.438 1227.94 239.666 1235.58 244.682Z" fill="white"/>
</svg>
