<svg width="185" height="63" viewBox="0 0 185 63" fill="none" xmlns="http://www.w3.org/2000/svg">
<path d="M65.774 18C65.242 18 64.976 17.734 64.976 17.202V5.916C64.976 5.384 65.242 5.118 65.774 5.118H70.733C71.74 5.118 72.5127 5.384 73.051 5.916C73.5957 6.448 73.868 7.208 73.868 8.196V8.709C73.868 9.564 73.5988 10.2258 73.0605 10.6945C74.0675 11.2582 74.571 12.2873 74.571 13.782V14.428C74.571 15.5933 74.2607 16.48 73.64 17.088C73.0257 17.696 72.139 18 70.98 18H65.774ZM66.572 16.404H70.98C71.6957 16.404 72.2055 16.252 72.5095 15.948C72.8198 15.6377 72.975 15.131 72.975 14.428V13.782C72.975 13.079 72.8262 12.5787 72.5285 12.281C72.2308 11.977 71.7147 11.825 70.98 11.825H66.572V16.404ZM66.572 10.229H71.075C71.5373 10.229 71.8508 10.0865 72.0155 9.8015C72.1865 9.5165 72.272 9.15233 72.272 8.709V8.196C72.272 7.645 72.158 7.26183 71.93 7.0465C71.702 6.82483 71.303 6.714 70.733 6.714H66.572V10.229ZM78.5582 18C78.0262 18 77.7602 17.734 77.7602 17.202V5.916C77.7602 5.384 78.0262 5.118 78.5582 5.118C79.0902 5.118 79.3562 5.384 79.3562 5.916V16.404H84.6192C85.1512 16.404 85.4172 16.67 85.4172 17.202C85.4172 17.734 85.1512 18 84.6192 18H78.5582ZM91.4684 18C90.018 18 88.9445 17.6548 88.2479 16.9645C87.5575 16.2678 87.2124 15.1943 87.2124 13.744V9.355C87.2124 7.892 87.5607 6.8185 88.2574 6.1345C88.954 5.44417 90.0244 5.10533 91.4684 5.118H93.7484C95.2051 5.118 96.2786 5.46317 96.9689 6.1535C97.6592 6.84383 98.0044 7.91733 98.0044 9.374V13.744C98.0044 15.1943 97.6592 16.2678 96.9689 16.9645C96.2786 17.6548 95.2051 18 93.7484 18H91.4684ZM91.4684 16.404H93.7484C94.426 16.404 94.958 16.3248 95.3444 16.1665C95.7307 16.0018 96.003 15.7263 96.1614 15.34C96.326 14.9537 96.4084 14.4217 96.4084 13.744V9.374C96.4084 8.70267 96.326 8.17383 96.1614 7.7875C96.003 7.40117 95.7307 7.12567 95.3444 6.961C94.958 6.79633 94.426 6.714 93.7484 6.714H91.4684C90.797 6.70767 90.2682 6.78367 89.8819 6.942C89.4955 7.10033 89.22 7.37267 89.0554 7.759C88.8907 8.14533 88.8084 8.67733 88.8084 9.355V13.744C88.8084 14.4217 88.8875 14.9537 89.0459 15.34C89.2105 15.7263 89.486 16.0018 89.8724 16.1665C90.2587 16.3248 90.7907 16.404 91.4684 16.404ZM105.292 18C103.841 18 102.768 17.6548 102.071 16.9645C101.381 16.2678 101.036 15.1943 101.036 13.744V9.374C101.036 7.911 101.381 6.83433 102.071 6.144C102.761 5.44733 103.829 5.10533 105.273 5.118H107.572C108.762 5.118 109.671 5.365 110.298 5.859C110.925 6.34667 111.289 7.11933 111.391 8.177C111.429 8.443 111.378 8.64567 111.239 8.785C111.099 8.92433 110.897 8.994 110.631 8.994C110.149 8.994 109.871 8.728 109.795 8.196C109.731 7.61333 109.529 7.22067 109.187 7.018C108.851 6.81533 108.313 6.714 107.572 6.714H105.273C104.601 6.70767 104.072 6.78367 103.686 6.942C103.306 7.10033 103.034 7.37583 102.869 7.7685C102.711 8.15483 102.632 8.69 102.632 9.374V13.744C102.632 14.4217 102.711 14.9537 102.869 15.34C103.034 15.7263 103.309 16.0018 103.696 16.1665C104.082 16.3248 104.614 16.404 105.292 16.404H107.572C108.313 16.404 108.851 16.3027 109.187 16.1C109.529 15.891 109.731 15.4983 109.795 14.922C109.871 14.39 110.149 14.124 110.631 14.124C110.897 14.124 111.099 14.1937 111.239 14.333C111.378 14.4723 111.429 14.675 111.391 14.941C111.289 16.005 110.925 16.7808 110.298 17.2685C109.671 17.7562 108.762 18 107.572 18H105.292ZM115.519 18C114.987 18 114.721 17.734 114.721 17.202V5.916C114.721 5.384 114.987 5.118 115.519 5.118C116.051 5.118 116.317 5.384 116.317 5.916V10.4285L121.162 5.422C121.529 5.02933 121.903 5.023 122.283 5.403C122.676 5.77033 122.682 6.144 122.302 6.524L118.265 10.6945L123.024 16.613C123.347 17.0373 123.309 17.411 122.91 17.734C122.498 18.0697 122.125 18.0317 121.789 17.62L117.144 11.863L116.317 12.718V17.202C116.317 17.734 116.051 18 115.519 18ZM129.672 18C128.222 18 127.149 17.6548 126.452 16.9645C125.762 16.2678 125.416 15.1943 125.416 13.744V9.374C125.416 7.911 125.762 6.83433 126.452 6.144C127.142 5.44733 128.209 5.10533 129.653 5.118H131.952C133.143 5.118 134.052 5.365 134.679 5.859C135.306 6.34667 135.67 7.11933 135.771 8.177C135.809 8.443 135.759 8.64567 135.619 8.785C135.48 8.92433 135.277 8.994 135.011 8.994C134.53 8.994 134.251 8.728 134.175 8.196C134.112 7.61333 133.909 7.22067 133.567 7.018C133.232 6.81533 132.693 6.714 131.952 6.714H129.653C128.982 6.70767 128.453 6.78367 128.067 6.942C127.687 7.10033 127.415 7.37583 127.25 7.7685C127.092 8.15483 127.012 8.69 127.012 9.374V13.744C127.012 14.4217 127.092 14.9537 127.25 15.34C127.415 15.7263 127.69 16.0018 128.076 16.1665C128.463 16.3248 128.995 16.404 129.672 16.404H131.952C132.693 16.404 133.232 16.3027 133.567 16.1C133.909 15.891 134.112 15.4983 134.175 14.922C134.251 14.39 134.53 14.124 135.011 14.124C135.277 14.124 135.48 14.1937 135.619 14.333C135.759 14.4723 135.809 14.675 135.771 14.941C135.67 16.005 135.306 16.7808 134.679 17.2685C134.052 17.7562 133.143 18 131.952 18H129.672ZM139.9 18C139.691 18 139.504 17.9208 139.339 17.7625C139.181 17.5978 139.102 17.411 139.102 17.202V5.916C139.102 5.707 139.181 5.52333 139.339 5.365C139.504 5.20033 139.691 5.118 139.9 5.118C140.109 5.118 140.293 5.20033 140.451 5.365C140.616 5.52333 140.698 5.707 140.698 5.916V10.685H148.45V5.916C148.45 5.707 148.529 5.52333 148.687 5.365C148.846 5.20033 149.033 5.118 149.248 5.118C149.457 5.118 149.641 5.20033 149.799 5.365C149.964 5.52333 150.046 5.707 150.046 5.916V17.202C150.046 17.411 149.964 17.5978 149.799 17.7625C149.641 17.9208 149.457 18 149.248 18C149.033 18 148.846 17.9208 148.687 17.7625C148.529 17.5978 148.45 17.411 148.45 17.202V12.281H140.698V17.202C140.698 17.411 140.616 17.5978 140.451 17.7625C140.293 17.9208 140.109 18 139.9 18ZM153.393 17.924C152.887 17.7277 152.735 17.3793 152.937 16.879L157.459 5.745C157.649 5.327 157.947 5.118 158.352 5.118H158.39C158.802 5.137 159.081 5.346 159.226 5.745L163.824 16.879C164.027 17.3793 163.881 17.7277 163.387 17.924C162.887 18.1203 162.539 17.9747 162.342 17.487L161.316 14.998H155.398L154.419 17.487C154.223 17.981 153.881 18.1267 153.393 17.924ZM156.025 13.402H160.661L158.295 7.645L156.025 13.402ZM167.454 18C167.181 18 166.979 17.9367 166.846 17.81C166.719 17.677 166.656 17.4743 166.656 17.202V5.935C166.656 5.65633 166.719 5.45367 166.846 5.327C166.979 5.20033 167.181 5.137 167.454 5.137C167.732 5.137 167.935 5.20033 168.062 5.327C168.188 5.45367 168.252 5.65633 168.252 5.935V17.202C168.252 17.4743 168.188 17.677 168.062 17.81C167.935 17.9367 167.732 18 167.454 18ZM173.002 18C172.47 18 172.204 17.734 172.204 17.202V5.916C172.204 5.384 172.47 5.118 173.002 5.118C173.274 5.118 173.54 5.27633 173.8 5.593L181.438 15.435H181.039V5.916C181.039 5.384 181.305 5.118 181.837 5.118C182.369 5.118 182.635 5.384 182.635 5.916V17.202C182.635 17.734 182.369 18 181.837 18C181.552 18 181.286 17.8417 181.039 17.525L173.401 7.683H173.8V17.202C173.8 17.734 173.534 18 173.002 18Z" fill="#3D4048"/>
<path d="M118.5 48.168C118.5 48.3672 118.418 48.5605 118.254 48.748C118.102 48.9355 117.914 49.1172 117.691 49.293C117.469 49.4688 117.24 49.6328 117.006 49.7852C116.771 49.9258 116.578 50.043 116.426 50.1367C116.027 50.3945 115.629 50.6348 115.23 50.8574C114.844 51.0801 114.439 51.2734 114.018 51.4375C113.607 51.6016 113.18 51.7305 112.734 51.8242C112.301 51.918 111.844 51.9648 111.363 51.9648L111.082 52C110.695 52 110.309 51.959 109.922 51.877C109.547 51.7832 109.195 51.6484 108.867 51.4727C108.539 51.2852 108.246 51.0508 107.988 50.7695C107.73 50.4883 107.531 50.1484 107.391 49.75C107.285 49.4336 107.203 49.0586 107.145 48.625C107.086 48.1914 107.039 47.7402 107.004 47.2715C106.98 46.8027 106.957 46.3457 106.934 45.9004C106.922 45.4434 106.91 45.0391 106.898 44.6875C106.723 41.1016 106.582 37.5156 106.477 33.9297C106.453 33.5195 106.436 33.1094 106.424 32.6992C106.412 32.2891 106.406 31.8789 106.406 31.4688C106.406 30.7656 106.447 30.168 106.529 29.6758C106.611 29.1836 106.775 28.7793 107.021 28.4629C107.268 28.1465 107.619 27.918 108.076 27.7773C108.545 27.6367 109.16 27.5664 109.922 27.5664C110.684 27.5664 111.445 27.5723 112.207 27.584C112.98 27.5957 113.754 27.6016 114.527 27.6016C114.762 27.6016 114.996 27.5957 115.23 27.584C115.465 27.5605 115.699 27.5781 115.934 27.6367C116.074 27.6602 116.197 27.7012 116.303 27.7598C116.408 27.8066 116.461 27.918 116.461 28.0938C116.461 28.5156 116.32 28.832 116.039 29.043C115.758 29.2422 115.424 29.377 115.037 29.4473C114.65 29.5176 114.246 29.5527 113.824 29.5527C113.414 29.541 113.074 29.5352 112.805 29.5352H110.52C110.285 29.5352 110.051 29.5352 109.816 29.5352C109.582 29.5352 109.348 29.5469 109.113 29.5703C109.043 29.7461 108.996 29.9277 108.973 30.1152C108.949 30.3027 108.938 30.4961 108.938 30.6953C108.938 31.9727 108.967 33.2324 109.025 34.4746C109.096 35.7168 109.16 36.9766 109.219 38.2539C109.945 38.1953 110.666 38.125 111.381 38.043C112.096 37.9609 112.816 37.8672 113.543 37.7617C113.648 37.7617 113.742 37.7559 113.824 37.7441C113.918 37.7324 114.012 37.7266 114.105 37.7266C114.352 37.7266 114.521 37.791 114.615 37.9199C114.721 38.0488 114.773 38.2305 114.773 38.4648C114.773 38.6289 114.762 38.7812 114.738 38.9219C114.727 39.0625 114.691 39.2031 114.633 39.3438C114.551 39.5781 114.416 39.748 114.229 39.8535C114.041 39.959 113.83 40.0352 113.596 40.082C113.361 40.1172 113.115 40.1348 112.857 40.1348C112.611 40.1348 112.395 40.1406 112.207 40.1523C111.715 40.1758 111.229 40.1934 110.748 40.2051C110.279 40.2168 109.805 40.2344 109.324 40.2578C109.336 40.5039 109.354 40.873 109.377 41.3652C109.4 41.8574 109.424 42.4141 109.447 43.0352C109.482 43.6445 109.518 44.2773 109.553 44.9336C109.6 45.5898 109.646 46.2109 109.693 46.7969C109.74 47.3711 109.793 47.875 109.852 48.3086C109.91 48.7422 109.969 49.0352 110.027 49.1875C110.156 49.4336 110.303 49.5977 110.467 49.6797C110.631 49.75 110.848 49.7852 111.117 49.7852C111.551 49.7852 112.008 49.7031 112.488 49.5391C112.969 49.3633 113.438 49.1465 113.895 48.8887C114.352 48.6191 114.785 48.3262 115.195 48.0098C115.617 47.6934 115.98 47.3828 116.285 47.0781C116.414 46.9727 116.543 46.8672 116.672 46.7617C116.801 46.6445 116.953 46.5859 117.129 46.5859C117.305 46.5859 117.475 46.6387 117.639 46.7441C117.803 46.8496 117.949 46.9844 118.078 47.1484C118.207 47.3008 118.307 47.4707 118.377 47.6582C118.459 47.8457 118.5 48.0156 118.5 48.168ZM130.084 46.4453C130.084 47.3125 129.943 48.1328 129.662 48.9062C129.381 49.6797 128.977 50.3594 128.449 50.9453C127.934 51.5195 127.307 51.9766 126.568 52.3164C125.83 52.668 125.01 52.8438 124.107 52.8438C123.311 52.8438 122.572 52.7148 121.893 52.457C121.225 52.2109 120.645 51.8594 120.152 51.4023C119.66 50.9453 119.273 50.3887 118.992 49.7324C118.723 49.0762 118.588 48.3438 118.588 47.5352C118.588 47.3711 118.594 47.166 118.605 46.9199C118.617 46.6738 118.652 46.4395 118.711 46.2168C118.781 45.9824 118.875 45.7891 118.992 45.6367C119.121 45.4727 119.303 45.3906 119.537 45.3906C119.725 45.3906 119.93 45.4316 120.152 45.5137C120.387 45.584 120.604 45.6836 120.803 45.8125C121.002 45.9414 121.166 46.0996 121.295 46.2871C121.436 46.4629 121.506 46.6562 121.506 46.8672V47.8867C121.506 48.6953 121.723 49.3574 122.156 49.873C122.602 50.377 123.24 50.6289 124.072 50.6289C124.658 50.6289 125.162 50.4941 125.584 50.2246C126.006 49.9551 126.346 49.6094 126.604 49.1875C126.873 48.7656 127.066 48.2969 127.184 47.7812C127.312 47.2539 127.377 46.7383 127.377 46.2344C127.377 45.25 127.172 44.2949 126.762 43.3691C126.363 42.4434 125.859 41.541 125.25 40.6621C124.641 39.7715 123.979 38.8984 123.264 38.043C122.549 37.1875 121.887 36.3379 121.277 35.4941C120.668 34.6504 120.158 33.8066 119.748 32.9629C119.35 32.1191 119.15 31.2578 119.15 30.3789C119.15 29.6641 119.291 29.0488 119.572 28.5332C119.865 28.0059 120.246 27.5781 120.715 27.25C121.195 26.9102 121.734 26.6641 122.332 26.5117C122.941 26.3477 123.568 26.2656 124.213 26.2656C124.998 26.2656 125.701 26.377 126.322 26.5996C126.943 26.8223 127.471 27.1445 127.904 27.5664C128.338 27.9883 128.666 28.5098 128.889 29.1309C129.123 29.7402 129.24 30.4375 129.24 31.2227C129.24 31.3398 129.234 31.4863 129.223 31.6621C129.211 31.8379 129.182 32.0137 129.135 32.1895C129.088 32.3535 129.018 32.5 128.924 32.6289C128.83 32.7461 128.701 32.8047 128.537 32.8047C128.303 32.8047 128.068 32.7461 127.834 32.6289C127.635 32.5234 127.471 32.4238 127.342 32.3301C127.225 32.2246 127.131 32.1133 127.061 31.9961C126.99 31.8672 126.938 31.7266 126.902 31.5742C126.867 31.4219 126.838 31.2344 126.814 31.0117C126.756 30.5898 126.68 30.209 126.586 29.8691C126.492 29.5293 126.352 29.2422 126.164 29.0078C125.977 28.7734 125.73 28.5918 125.426 28.4629C125.121 28.334 124.729 28.2695 124.248 28.2695C123.908 28.2695 123.58 28.3047 123.264 28.375C122.959 28.4453 122.689 28.5625 122.455 28.7266C122.232 28.8906 122.051 29.1074 121.91 29.377C121.781 29.6348 121.717 29.957 121.717 30.3438C121.717 30.8828 121.834 31.4336 122.068 31.9961C122.314 32.5586 122.631 33.1328 123.018 33.7188C123.416 34.3047 123.861 34.9082 124.354 35.5293C124.857 36.1387 125.373 36.7715 125.9 37.4277C126.428 38.084 126.938 38.7637 127.43 39.4668C127.934 40.1582 128.379 40.8789 128.766 41.6289C129.164 42.3789 129.48 43.1582 129.715 43.9668C129.961 44.7637 130.084 45.5898 130.084 46.4453ZM145.061 46.7969C145.061 46.9727 145.031 47.1484 144.973 47.3242C144.926 47.4883 144.873 47.6523 144.814 47.8164C144.557 48.4844 144.24 49.1055 143.865 49.6797C143.49 50.2422 143.057 50.7285 142.564 51.1387C142.072 51.5488 141.516 51.8711 140.895 52.1055C140.273 52.3398 139.588 52.457 138.838 52.457C137.842 52.457 136.986 52.2461 136.271 51.8242C135.557 51.4023 134.947 50.8574 134.443 50.1895C133.939 49.5098 133.523 48.7539 133.195 47.9219C132.879 47.0898 132.627 46.2578 132.439 45.4258C132.158 44.2188 131.941 43.0117 131.789 41.8047C131.637 40.5859 131.561 39.3672 131.561 38.1484C131.561 37.4336 131.59 36.6953 131.648 35.9336C131.719 35.1719 131.836 34.4219 132 33.6836C132.164 32.9336 132.387 32.2129 132.668 31.5215C132.949 30.8184 133.301 30.1738 133.723 29.5879C134.145 28.9902 134.643 28.4629 135.217 28.0059C135.803 27.5488 136.482 27.1914 137.256 26.9336C137.537 26.8281 137.83 26.7578 138.135 26.7227C138.439 26.6758 138.744 26.6523 139.049 26.6523C139.658 26.6523 140.238 26.752 140.789 26.9512C141.34 27.1504 141.82 27.4316 142.23 27.7949C142.652 28.1582 142.98 28.5977 143.215 29.1133C143.461 29.6289 143.584 30.2031 143.584 30.8359C143.584 31.0469 143.537 31.2051 143.443 31.3105C143.35 31.416 143.186 31.4688 142.951 31.4688C142.518 31.4688 142.178 31.3984 141.932 31.2578C141.697 31.1172 141.504 30.9414 141.352 30.7305C141.199 30.5195 141.07 30.291 140.965 30.0449C140.871 29.7988 140.754 29.5703 140.613 29.3594C140.473 29.1484 140.285 28.9727 140.051 28.832C139.816 28.6914 139.494 28.6211 139.084 28.6211C138.674 28.6211 138.287 28.7031 137.924 28.8672C137.572 29.0195 137.244 29.2246 136.939 29.4824C136.646 29.7402 136.377 30.0332 136.131 30.3613C135.896 30.6777 135.686 31 135.498 31.3281C135.006 32.2422 134.66 33.2207 134.461 34.2637C134.262 35.2949 134.162 36.332 134.162 37.375C134.162 37.7266 134.174 38.1836 134.197 38.7461C134.232 39.2969 134.279 39.9062 134.338 40.5742C134.408 41.2422 134.502 41.9512 134.619 42.7012C134.736 43.4395 134.877 44.166 135.041 44.8809C135.217 45.5957 135.422 46.2812 135.656 46.9375C135.902 47.5938 136.178 48.168 136.482 48.6602C136.799 49.1523 137.15 49.5449 137.537 49.8379C137.936 50.1309 138.381 50.2773 138.873 50.2773C139.377 50.2773 139.822 50.1484 140.209 49.8906C140.596 49.6211 140.924 49.2871 141.193 48.8887C141.475 48.4785 141.703 48.0391 141.879 47.5703C142.066 47.0898 142.213 46.6445 142.318 46.2344C142.354 46.1172 142.383 46.0117 142.406 45.918C142.441 45.8242 142.482 45.7422 142.529 45.6719C142.588 45.6016 142.658 45.5488 142.74 45.5137C142.822 45.4785 142.939 45.4609 143.092 45.4609C143.256 45.4609 143.449 45.4961 143.672 45.5664C143.906 45.625 144.123 45.7129 144.322 45.8301C144.533 45.9473 144.709 46.0879 144.85 46.252C144.99 46.416 145.061 46.5977 145.061 46.7969ZM157.541 38.5C157.541 38.9922 157.529 39.5664 157.506 40.2227C157.494 40.8672 157.453 41.5586 157.383 42.2969C157.324 43.0352 157.23 43.791 157.102 44.5645C156.984 45.3379 156.826 46.0938 156.627 46.832C156.428 47.5703 156.182 48.2676 155.889 48.9238C155.596 49.5801 155.244 50.1543 154.834 50.6465C154.424 51.1387 153.949 51.5312 153.41 51.8242C152.871 52.1055 152.256 52.2461 151.564 52.2461C150.873 52.2461 150.246 52.0879 149.684 51.7715C149.121 51.4434 148.646 51.0156 148.26 50.4883C147.943 50.0664 147.662 49.5508 147.416 48.9414C147.182 48.3203 146.971 47.6465 146.783 46.9199C146.607 46.1934 146.455 45.4375 146.326 44.6523C146.197 43.8672 146.092 43.0938 146.01 42.332C145.939 41.5703 145.887 40.8496 145.852 40.1699C145.816 39.4785 145.799 38.875 145.799 38.3594C145.799 37.4922 145.834 36.584 145.904 35.6348C145.986 34.6855 146.133 33.748 146.344 32.8223C146.555 31.8848 146.842 30.9824 147.205 30.1152C147.568 29.248 148.037 28.4688 148.611 27.7773C148.67 27.707 148.74 27.625 148.822 27.5312C148.916 27.4375 149.016 27.3496 149.121 27.2676C149.227 27.1738 149.332 27.0977 149.438 27.0391C149.555 26.9688 149.666 26.9336 149.771 26.9336C149.877 26.9336 149.977 26.9629 150.07 27.0215C150.176 27.0801 150.264 27.1562 150.334 27.25C150.58 27.1094 150.838 27.0098 151.107 26.9512C151.389 26.8926 151.67 26.8633 151.951 26.8633C152.807 26.8633 153.539 27.0684 154.148 27.4785C154.77 27.877 155.285 28.4043 155.695 29.0605C156.105 29.7168 156.434 30.4609 156.68 31.293C156.926 32.125 157.113 32.9746 157.242 33.8418C157.371 34.709 157.453 35.5469 157.488 36.3555C157.523 37.1641 157.541 37.8789 157.541 38.5ZM154.799 39.2734C154.799 38.9688 154.787 38.5059 154.764 37.8848C154.752 37.252 154.711 36.5605 154.641 35.8105C154.57 35.0488 154.471 34.2695 154.342 33.4727C154.225 32.6758 154.061 31.9551 153.85 31.3105C153.639 30.6543 153.375 30.1211 153.059 29.7109C152.754 29.2891 152.385 29.0781 151.951 29.0781C151.775 29.0781 151.617 29.1602 151.477 29.3242C151.336 29.4883 151.201 29.6992 151.072 29.957C150.943 30.2148 150.826 30.4961 150.721 30.8008C150.615 31.1055 150.51 31.3984 150.404 31.6797C150.299 31.9609 150.199 32.2129 150.105 32.4355C150.012 32.6582 149.912 32.8164 149.807 32.9102C149.771 32.9453 149.713 32.9688 149.631 32.9805C149.561 32.9805 149.49 32.9805 149.42 32.9805C149.221 32.9805 149.033 32.9453 148.857 32.875C148.658 33.6719 148.518 34.4688 148.436 35.2656C148.365 36.0508 148.33 36.8477 148.33 37.6562C148.33 37.9023 148.342 38.2715 148.365 38.7637C148.389 39.2559 148.424 39.8184 148.471 40.4512C148.518 41.084 148.582 41.7637 148.664 42.4902C148.746 43.2168 148.846 43.9434 148.963 44.6699C149.08 45.3848 149.215 46.0762 149.367 46.7441C149.531 47.4004 149.719 47.9863 149.93 48.502C150.141 49.0059 150.375 49.4102 150.633 49.7148C150.891 50.0195 151.178 50.1719 151.494 50.1719C151.67 50.1719 151.828 50.125 151.969 50.0312C152.109 49.9258 152.244 49.8203 152.373 49.7148C152.725 49.3984 153.029 48.9824 153.287 48.4668C153.545 47.9512 153.762 47.3828 153.938 46.7617C154.113 46.1406 154.26 45.4902 154.377 44.8105C154.494 44.1191 154.582 43.4395 154.641 42.7715C154.699 42.1035 154.74 41.4707 154.764 40.873C154.787 40.2637 154.799 39.7305 154.799 39.2734ZM170.197 49.4336C170.197 49.7031 170.051 49.9609 169.758 50.207C169.477 50.4531 169.107 50.6816 168.65 50.8926C168.205 51.0918 167.707 51.2793 167.156 51.4551C166.617 51.6191 166.084 51.7598 165.557 51.877C165.041 51.9941 164.566 52.082 164.133 52.1406C163.699 52.2109 163.377 52.2461 163.166 52.2461C162.768 52.2461 162.398 52.1992 162.059 52.1055C161.73 52.0117 161.443 51.8711 161.197 51.6836C160.951 51.4844 160.758 51.2324 160.617 50.9277C160.488 50.623 160.424 50.2539 160.424 49.8203C160.424 46.6914 160.436 43.5742 160.459 40.4688C160.482 37.3633 160.494 34.2344 160.494 31.082C160.494 30.5898 160.482 30.1035 160.459 29.623C160.436 29.1426 160.424 28.6562 160.424 28.1641C160.424 28.0469 160.43 27.9121 160.441 27.7598C160.453 27.5957 160.482 27.4492 160.529 27.3203C160.576 27.1797 160.646 27.0625 160.74 26.9688C160.834 26.875 160.963 26.8281 161.127 26.8281C161.291 26.8281 161.461 26.8516 161.637 26.8984C161.824 26.9453 161.994 27.0156 162.146 27.1094C162.311 27.2031 162.451 27.3203 162.568 27.4609C162.697 27.5898 162.791 27.7422 162.85 27.918C162.908 28.1289 162.932 28.3574 162.92 28.6035C162.92 28.8379 162.92 29.0781 162.92 29.3242C162.979 32.4414 163.02 35.5352 163.043 38.6055C163.078 41.6758 163.096 44.7695 163.096 47.8867C163.096 48.2383 163.096 48.5898 163.096 48.9414C163.107 49.293 163.131 49.6445 163.166 49.9961C163.482 49.9844 163.869 49.9316 164.326 49.8379C164.783 49.7441 165.24 49.627 165.697 49.4863C166.166 49.334 166.605 49.1641 167.016 48.9766C167.426 48.7891 167.748 48.5898 167.982 48.3789C168.088 48.2734 168.199 48.168 168.316 48.0625C168.434 47.9453 168.58 47.8867 168.756 47.8867C168.908 47.8867 169.066 47.9395 169.23 48.0449C169.406 48.1504 169.564 48.2852 169.705 48.4492C169.846 48.6016 169.963 48.7656 170.057 48.9414C170.15 49.1172 170.197 49.2812 170.197 49.4336ZM183.328 42.332C183.328 42.5781 183.24 42.8359 183.064 43.1055C182.889 43.375 182.695 43.5742 182.484 43.7031C182.426 43.7383 182.326 43.7734 182.186 43.8086C182.045 43.8438 181.893 43.8789 181.729 43.9141C181.576 43.9375 181.424 43.9668 181.271 44.002C181.131 44.0254 181.02 44.043 180.938 44.0547L181.359 46.6562C181.488 47.4648 181.582 48.2793 181.641 49.0996C181.711 49.9082 181.863 50.7109 182.098 51.5078C182.121 51.5781 182.145 51.6426 182.168 51.7012C182.191 51.7598 182.203 51.8359 182.203 51.9297C182.203 52.082 182.156 52.1992 182.062 52.2812C181.98 52.3633 181.875 52.4219 181.746 52.457C181.629 52.5039 181.5 52.5332 181.359 52.5449C181.219 52.5566 181.09 52.5625 180.973 52.5625H180.727C180.363 52.5625 180.082 52.5332 179.883 52.4746C179.695 52.416 179.549 52.3164 179.443 52.1758C179.338 52.0352 179.268 51.8594 179.232 51.6484C179.197 51.4258 179.156 51.1562 179.109 50.8398C178.828 48.6953 178.512 46.5508 178.16 44.4062C177.434 44.5 176.701 44.5879 175.963 44.6699C175.236 44.752 174.504 44.8281 173.766 44.8984L173.203 48.3438C173.18 48.5547 173.145 48.8418 173.098 49.2051C173.062 49.5684 173.016 49.9434 172.957 50.3301C172.91 50.7051 172.852 51.0566 172.781 51.3848C172.723 51.7129 172.652 51.9531 172.57 52.1055C172.5 52.2461 172.436 52.3457 172.377 52.4043C172.318 52.4629 172.207 52.4922 172.043 52.4922C171.832 52.4922 171.621 52.4512 171.41 52.3691C171.211 52.2988 171.029 52.1934 170.865 52.0527C170.713 51.9238 170.59 51.7656 170.496 51.5781C170.402 51.3906 170.355 51.1797 170.355 50.9453C170.355 50.7109 170.379 50.4766 170.426 50.2422C170.484 50.0078 170.531 49.7734 170.566 49.5391C170.695 48.7656 170.812 47.998 170.918 47.2363C171.023 46.4629 171.141 45.6953 171.27 44.9336C171.188 44.9219 171.094 44.9043 170.988 44.8809C170.883 44.8457 170.777 44.8047 170.672 44.7578C170.578 44.7109 170.496 44.6523 170.426 44.582C170.355 44.5117 170.32 44.4297 170.32 44.3359C170.32 44.2188 170.361 44.1133 170.443 44.0195C170.537 43.9141 170.643 43.8203 170.76 43.7383C170.889 43.6445 171.018 43.5684 171.146 43.5098C171.275 43.4395 171.387 43.3867 171.48 43.3516C171.727 41.7109 171.961 40.0762 172.184 38.4473C172.406 36.8184 172.605 35.1719 172.781 33.5078C172.828 33.0625 172.869 32.6113 172.904 32.1543C172.939 31.6973 172.975 31.2402 173.01 30.7832C173.057 30.3262 173.109 29.875 173.168 29.4297C173.238 28.9844 173.332 28.5391 173.449 28.0938C173.555 27.6719 173.73 27.332 173.977 27.0742C174.223 26.8164 174.586 26.6875 175.066 26.6875C175.207 26.6875 175.342 26.6992 175.471 26.7227C175.611 26.7461 175.734 26.793 175.84 26.8633C176.145 27.0156 176.461 27.4316 176.789 28.1113C177.117 28.791 177.445 29.6172 177.773 30.5898C178.102 31.5508 178.412 32.5938 178.705 33.7188C179.01 34.8438 179.285 35.9336 179.531 36.9883C179.777 38.043 179.988 38.998 180.164 39.8535C180.34 40.6973 180.469 41.3242 180.551 41.7344C180.797 41.6992 181.043 41.6699 181.289 41.6465C181.535 41.6113 181.781 41.5938 182.027 41.5938C182.145 41.5938 182.279 41.5996 182.432 41.6113C182.584 41.623 182.725 41.6582 182.854 41.7168C182.994 41.7637 183.105 41.8398 183.188 41.9453C183.281 42.0391 183.328 42.168 183.328 42.332ZM177.809 42.1914C177.504 40.5273 177.17 38.8809 176.807 37.252C176.455 35.6113 176.039 33.9766 175.559 32.3477C175.348 34.1172 175.119 35.875 174.873 37.6211C174.627 39.3672 174.363 41.1133 174.082 42.8594C174.715 42.7656 175.336 42.666 175.945 42.5605C176.566 42.4434 177.188 42.3203 177.809 42.1914Z" fill="#3D4048"/>
<path d="M75.4453 50.5586C75.4453 50.7695 75.4219 50.9805 75.375 51.1914C75.3398 51.3906 75.2695 51.5723 75.1641 51.7363C75.0703 51.8887 74.9414 52.0117 74.7773 52.1055C74.6133 52.1992 74.4023 52.2461 74.1445 52.2461C73.8281 52.2461 73.5703 52.1758 73.3711 52.0352C73.1836 51.9062 73.0078 51.7188 72.8438 51.4727C72.6211 51.1562 72.4219 50.793 72.2461 50.3828C72.0703 49.9609 71.9121 49.5332 71.7715 49.0996C71.6309 48.6543 71.4961 48.2148 71.3672 47.7812C71.25 47.3359 71.1328 46.9258 71.0156 46.5508C70.3828 44.582 69.791 42.6191 69.2402 40.6621C68.7012 38.7051 68.1211 36.7422 67.5 34.7734C67.4414 37.3164 67.3945 39.8477 67.3594 42.3672C67.3359 44.8867 67.3242 47.418 67.3242 49.9609C67.3242 50.0898 67.3184 50.2363 67.3066 50.4004C67.2949 50.5645 67.2656 50.7227 67.2188 50.875C67.1719 51.0156 67.0957 51.1387 66.9902 51.2441C66.8965 51.3496 66.7617 51.4023 66.5859 51.4023C65.9883 51.4023 65.5312 51.2441 65.2148 50.9277C64.9102 50.5996 64.7578 50.1367 64.7578 49.5391C64.7578 46.2461 64.7637 42.9824 64.7754 39.748C64.7871 36.5137 64.793 33.2617 64.793 29.9922V27.4961C64.793 27.2266 64.8398 27.0039 64.9336 26.8281C65.0391 26.6406 65.2617 26.5469 65.6016 26.5469C65.8359 26.5469 66.0762 26.582 66.3223 26.6523C66.5684 26.7109 66.7852 26.8047 66.9727 26.9336C67.1719 27.0625 67.3301 27.2324 67.4473 27.4434C67.5762 27.6426 67.6406 27.8828 67.6406 28.1641C68.1328 29.1016 68.543 30.0684 68.8711 31.0645C69.2109 32.0605 69.5391 33.0625 69.8555 34.0703C70.3125 35.5352 70.7637 37 71.209 38.4648C71.6543 39.9297 72.1055 41.4062 72.5625 42.8945C72.4922 40.6797 72.416 38.4707 72.334 36.2676C72.2637 34.0527 72.1172 31.8438 71.8945 29.6406C71.8359 29.1602 71.7656 28.6914 71.6836 28.2344C71.6133 27.7773 71.5781 27.3086 71.5781 26.8281C71.5781 26.582 71.6602 26.418 71.8242 26.3359C71.9883 26.2422 72.1758 26.1953 72.3867 26.1953C72.75 26.1953 73.0605 26.2246 73.3184 26.2832C73.5762 26.3418 73.793 26.4414 73.9688 26.582C74.1445 26.7227 74.2793 26.916 74.373 27.1621C74.4668 27.3965 74.543 27.6953 74.6016 28.0586C74.6719 28.6914 74.7246 29.3301 74.7598 29.9746C74.8066 30.6074 74.8477 31.2344 74.8828 31.8555C74.9883 33.4258 75.0645 34.9844 75.1113 36.5312C75.1582 38.0781 75.1992 39.6367 75.2344 41.207C75.2695 42.7656 75.3105 44.3242 75.3574 45.8828C75.416 47.4297 75.4453 48.9883 75.4453 50.5586ZM90.7734 42.332C90.7734 42.5781 90.6855 42.8359 90.5098 43.1055C90.334 43.375 90.1406 43.5742 89.9297 43.7031C89.8711 43.7383 89.7715 43.7734 89.6309 43.8086C89.4902 43.8438 89.3379 43.8789 89.1738 43.9141C89.0215 43.9375 88.8691 43.9668 88.7168 44.002C88.5762 44.0254 88.4648 44.043 88.3828 44.0547L88.8047 46.6562C88.9336 47.4648 89.0273 48.2793 89.0859 49.0996C89.1562 49.9082 89.3086 50.7109 89.543 51.5078C89.5664 51.5781 89.5898 51.6426 89.6133 51.7012C89.6367 51.7598 89.6484 51.8359 89.6484 51.9297C89.6484 52.082 89.6016 52.1992 89.5078 52.2812C89.4258 52.3633 89.3203 52.4219 89.1914 52.457C89.0742 52.5039 88.9453 52.5332 88.8047 52.5449C88.6641 52.5566 88.5352 52.5625 88.418 52.5625H88.1719C87.8086 52.5625 87.5273 52.5332 87.3281 52.4746C87.1406 52.416 86.9941 52.3164 86.8887 52.1758C86.7832 52.0352 86.7129 51.8594 86.6777 51.6484C86.6426 51.4258 86.6016 51.1562 86.5547 50.8398C86.2734 48.6953 85.957 46.5508 85.6055 44.4062C84.8789 44.5 84.1465 44.5879 83.4082 44.6699C82.6816 44.752 81.9492 44.8281 81.2109 44.8984L80.6484 48.3438C80.625 48.5547 80.5898 48.8418 80.543 49.2051C80.5078 49.5684 80.4609 49.9434 80.4023 50.3301C80.3555 50.7051 80.2969 51.0566 80.2266 51.3848C80.168 51.7129 80.0977 51.9531 80.0156 52.1055C79.9453 52.2461 79.8809 52.3457 79.8223 52.4043C79.7637 52.4629 79.6523 52.4922 79.4883 52.4922C79.2773 52.4922 79.0664 52.4512 78.8555 52.3691C78.6562 52.2988 78.4746 52.1934 78.3105 52.0527C78.1582 51.9238 78.0352 51.7656 77.9414 51.5781C77.8477 51.3906 77.8008 51.1797 77.8008 50.9453C77.8008 50.7109 77.8242 50.4766 77.8711 50.2422C77.9297 50.0078 77.9766 49.7734 78.0117 49.5391C78.1406 48.7656 78.2578 47.998 78.3633 47.2363C78.4688 46.4629 78.5859 45.6953 78.7148 44.9336C78.6328 44.9219 78.5391 44.9043 78.4336 44.8809C78.3281 44.8457 78.2227 44.8047 78.1172 44.7578C78.0234 44.7109 77.9414 44.6523 77.8711 44.582C77.8008 44.5117 77.7656 44.4297 77.7656 44.3359C77.7656 44.2188 77.8066 44.1133 77.8887 44.0195C77.9824 43.9141 78.0879 43.8203 78.2051 43.7383C78.334 43.6445 78.4629 43.5684 78.5918 43.5098C78.7207 43.4395 78.832 43.3867 78.9258 43.3516C79.1719 41.7109 79.4062 40.0762 79.6289 38.4473C79.8516 36.8184 80.0508 35.1719 80.2266 33.5078C80.2734 33.0625 80.3145 32.6113 80.3496 32.1543C80.3848 31.6973 80.4199 31.2402 80.4551 30.7832C80.502 30.3262 80.5547 29.875 80.6133 29.4297C80.6836 28.9844 80.7773 28.5391 80.8945 28.0938C81 27.6719 81.1758 27.332 81.4219 27.0742C81.668 26.8164 82.0312 26.6875 82.5117 26.6875C82.6523 26.6875 82.7871 26.6992 82.916 26.7227C83.0566 26.7461 83.1797 26.793 83.2852 26.8633C83.5898 27.0156 83.9062 27.4316 84.2344 28.1113C84.5625 28.791 84.8906 29.6172 85.2188 30.5898C85.5469 31.5508 85.8574 32.5938 86.1504 33.7188C86.4551 34.8438 86.7305 35.9336 86.9766 36.9883C87.2227 38.043 87.4336 38.998 87.6094 39.8535C87.7852 40.6973 87.9141 41.3242 87.9961 41.7344C88.2422 41.6992 88.4883 41.6699 88.7344 41.6465C88.9805 41.6113 89.2266 41.5938 89.4727 41.5938C89.5898 41.5938 89.7246 41.5996 89.877 41.6113C90.0293 41.623 90.1699 41.6582 90.2988 41.7168C90.4395 41.7637 90.5508 41.8398 90.6328 41.9453C90.7266 42.0391 90.7734 42.168 90.7734 42.332ZM85.2539 42.1914C84.9492 40.5273 84.6152 38.8809 84.252 37.252C83.9004 35.6113 83.4844 33.9766 83.0039 32.3477C82.793 34.1172 82.5645 35.875 82.3184 37.6211C82.0723 39.3672 81.8086 41.1133 81.5273 42.8594C82.1602 42.7656 82.7812 42.666 83.3906 42.5605C84.0117 42.4434 84.6328 42.3203 85.2539 42.1914Z" fill="#3D4048"/>
<rect x="6" y="52" width="41.4247" height="41.4247" transform="rotate(-90 6 52)" fill="#723AD8"/>
<path d="M6 52L6 10.5753L47.4247 10.5753L19.2329 24.9589L6 52Z" fill="#FCD83B"/>
<path d="M48 15.3333C50.9455 15.3333 53.3333 12.9455 53.3333 10C53.3333 7.05448 50.9455 4.66666 48 4.66666C45.0545 4.66666 42.6667 7.05448 42.6667 10C42.6667 12.9455 45.0545 15.3333 48 15.3333ZM19.8082 24.3836L19.3537 23.4928L19.0608 23.6422L18.9138 23.9363L19.8082 24.3836ZM3.41801 57.164L11.164 54.582L8.58199 46.836L0.836022 49.418L3.41801 57.164ZM47.5455 9.10924L19.3537 23.4928L20.2627 25.2743L48.4545 10.8908L47.5455 9.10924ZM18.9138 23.9363L5.10557 51.5528L6.89443 52.4472L20.7026 24.8308L18.9138 23.9363Z" fill="white"/>
</svg>
