<svg width="150" height="105" viewBox="0 0 150 105" fill="none" xmlns="http://www.w3.org/2000/svg">
<path d="M3 3H147V101.1H3V3Z" stroke="#723AD8" stroke-width="6"/>
<path d="M12.955 34.35L12.661 32.565L14.005 32.25V21.876L12.535 21.729V19.839H18.352C19.346 19.839 20.193 20.007 20.893 20.343C21.593 20.679 22.125 21.134 22.489 21.708C22.867 22.282 23.056 22.926 23.056 23.64C23.056 24.284 22.923 24.844 22.657 25.32C22.391 25.782 22.069 26.146 21.691 26.412C21.327 26.678 20.998 26.846 20.704 26.916C21.306 27.07 21.824 27.294 22.258 27.588C22.692 27.882 23.028 28.267 23.266 28.743C23.518 29.205 23.644 29.765 23.644 30.423C23.644 31.739 23.21 32.726 22.342 33.384C21.488 34.028 20.368 34.35 18.982 34.35H12.955ZM16.756 32.145H18.31C18.758 32.145 19.164 32.089 19.528 31.977C19.906 31.851 20.207 31.648 20.431 31.368C20.655 31.074 20.767 30.675 20.767 30.171C20.767 29.471 20.522 28.96 20.032 28.638C19.556 28.302 18.87 28.134 17.974 28.134H16.756V32.145ZM16.756 25.929H17.995C18.485 25.929 18.891 25.845 19.213 25.677C19.535 25.509 19.773 25.278 19.927 24.984C20.095 24.676 20.179 24.333 20.179 23.955C20.179 23.255 19.927 22.765 19.423 22.485C18.933 22.191 18.359 22.044 17.701 22.044H16.756V25.929Z" fill="#723AD8"/>
<path d="M25.4228 34.35L25.1288 32.502L26.4938 32.229V21.855L25.1708 21.708V19.839H30.5048L30.8198 21.75L29.2448 22.044V32.145H32.7938L33.5708 30.066H35.2298L34.7888 34.35H25.4228Z" fill="#723AD8"/>
<path d="M42.2105 34.434C41.2165 34.434 40.3345 34.259 39.5645 33.909C38.8085 33.545 38.1715 33.034 37.6535 32.376C37.1355 31.718 36.7435 30.941 36.4775 30.045C36.2115 29.149 36.0785 28.169 36.0785 27.105C36.0785 26.027 36.2115 25.047 36.4775 24.165C36.7435 23.269 37.1355 22.499 37.6535 21.855C38.1715 21.197 38.8085 20.693 39.5645 20.343C40.3345 19.979 41.2165 19.797 42.2105 19.797C43.2045 19.797 44.0795 19.979 44.8355 20.343C45.5915 20.693 46.2285 21.197 46.7465 21.855C47.2645 22.499 47.6565 23.269 47.9225 24.165C48.1885 25.047 48.3215 26.027 48.3215 27.105C48.3215 28.169 48.1885 29.149 47.9225 30.045C47.6565 30.941 47.2645 31.718 46.7465 32.376C46.2285 33.034 45.5915 33.545 44.8355 33.909C44.0795 34.259 43.2045 34.434 42.2105 34.434ZM42.2105 32.229C42.7005 32.229 43.1415 32.103 43.5335 31.851C43.9395 31.585 44.2825 31.221 44.5625 30.759C44.8425 30.297 45.0595 29.758 45.2135 29.142C45.3675 28.526 45.4445 27.861 45.4445 27.147C45.4445 26.433 45.3675 25.768 45.2135 25.152C45.0595 24.522 44.8425 23.976 44.5625 23.514C44.2825 23.038 43.9395 22.667 43.5335 22.401C43.1415 22.135 42.7005 22.002 42.2105 22.002C41.7065 22.002 41.2515 22.135 40.8455 22.401C40.4535 22.667 40.1175 23.038 39.8375 23.514C39.5575 23.976 39.3405 24.522 39.1865 25.152C39.0325 25.768 38.9555 26.433 38.9555 27.147C38.9555 27.861 39.0325 28.526 39.1865 29.142C39.3405 29.758 39.5575 30.297 39.8375 30.759C40.1175 31.221 40.4535 31.585 40.8455 31.851C41.2515 32.103 41.7065 32.229 42.2105 32.229Z" fill="#723AD8"/>
<path d="M56.7482 34.434C55.8102 34.434 54.9142 34.287 54.0602 33.993C53.2062 33.699 52.4502 33.258 51.7922 32.67C51.1342 32.068 50.6162 31.326 50.2382 30.444C49.8602 29.548 49.6712 28.512 49.6712 27.336C49.6712 26.104 49.8672 25.026 50.2592 24.102C50.6512 23.164 51.1762 22.38 51.8342 21.75C52.5062 21.12 53.2552 20.644 54.0812 20.322C54.9072 20 55.7472 19.839 56.6012 19.839C57.5392 19.839 58.3092 19.909 58.9112 20.049C59.5132 20.175 59.9262 20.273 60.1502 20.343L60.5702 24.69H58.8692L57.6302 22.086C57.5322 22.072 57.4272 22.065 57.3152 22.065C57.2032 22.051 57.0352 22.044 56.8112 22.044C56.0412 22.044 55.3272 22.247 54.6692 22.653C54.0252 23.059 53.5072 23.633 53.1152 24.375C52.7232 25.117 52.5132 26.006 52.4852 27.042C52.4992 28.05 52.6882 28.946 53.0522 29.73C53.4162 30.5 53.9202 31.109 54.5642 31.557C55.2222 32.005 55.9852 32.229 56.8532 32.229C57.4272 32.229 58.0012 32.124 58.5752 31.914C59.1632 31.704 59.6532 31.396 60.0452 30.99L60.9272 32.859C60.6752 33.153 60.3252 33.419 59.8772 33.657C59.4432 33.895 58.9532 34.084 58.4072 34.224C57.8612 34.364 57.3082 34.434 56.7482 34.434Z" fill="#723AD8"/>
<path d="M62.4794 34.35L62.1854 32.481L63.6554 32.208V21.897L62.2274 21.792V19.839H67.5404L67.8554 21.729L66.4064 22.044V27.105L70.6274 22.044L69.0104 21.708V19.839H74.3024V21.708L73.4834 21.876L69.8504 26.139L73.2524 32.313L74.3864 32.523V34.35H71.0684L68.0024 28.239L66.4064 30.108V32.271L67.7924 32.523L67.8134 34.35H62.4794Z" fill="#723AD8"/>
<path d="M81.9113 34.434C80.9733 34.434 80.0773 34.287 79.2233 33.993C78.3693 33.699 77.6133 33.258 76.9553 32.67C76.2973 32.068 75.7793 31.326 75.4013 30.444C75.0233 29.548 74.8343 28.512 74.8343 27.336C74.8343 26.104 75.0303 25.026 75.4223 24.102C75.8143 23.164 76.3393 22.38 76.9973 21.75C77.6693 21.12 78.4183 20.644 79.2443 20.322C80.0703 20 80.9103 19.839 81.7643 19.839C82.7023 19.839 83.4723 19.909 84.0743 20.049C84.6763 20.175 85.0893 20.273 85.3133 20.343L85.7333 24.69H84.0323L82.7933 22.086C82.6953 22.072 82.5903 22.065 82.4783 22.065C82.3663 22.051 82.1983 22.044 81.9743 22.044C81.2043 22.044 80.4903 22.247 79.8323 22.653C79.1883 23.059 78.6703 23.633 78.2783 24.375C77.8863 25.117 77.6763 26.006 77.6483 27.042C77.6623 28.05 77.8513 28.946 78.2153 29.73C78.5793 30.5 79.0833 31.109 79.7273 31.557C80.3853 32.005 81.1483 32.229 82.0163 32.229C82.5903 32.229 83.1643 32.124 83.7383 31.914C84.3263 31.704 84.8163 31.396 85.2083 30.99L86.0903 32.859C85.8383 33.153 85.4883 33.419 85.0403 33.657C84.6063 33.895 84.1163 34.084 83.5703 34.224C83.0243 34.364 82.4713 34.434 81.9113 34.434Z" fill="#723AD8"/>
<path d="M87.7265 34.35L87.4115 32.481L88.7765 32.208V21.897L87.4535 21.75V19.839H92.5775L92.8925 21.792L91.5275 22.044V25.803H96.2525V21.897L95.0765 21.75V19.839H100.263L100.578 21.792L99.0035 22.044V32.271L100.536 32.523L100.515 34.35H95.3495L95.0345 32.481L96.2525 32.208V28.008H91.5275V32.271L92.8505 32.523L92.8715 34.35H87.7265Z" fill="#723AD8"/>
<path d="M101.485 34.35L101.212 32.712L102.367 32.334L106.525 19.839H109.129L113.35 32.334L114.316 32.712L114.106 34.35H108.646V32.775L110.326 32.334L109.57 29.772H105.454L104.656 32.418L106.504 32.754V34.35H101.485ZM106.105 27.567H108.646L107.533 22.821L106.105 27.567Z" fill="#723AD8"/>
<path d="M115.431 34.35L115.137 32.481L116.607 32.208V21.897L115.179 21.75V19.839H120.639L120.954 21.792L119.358 22.044V32.271L120.912 32.523L120.891 34.35H115.431Z" fill="#723AD8"/>
<path d="M122.773 34.35L122.437 32.523L123.886 32.25V21.939L122.542 21.792V19.839H127.918L132.685 32.334V21.897L131.467 21.75V19.839H135.982L136.297 21.792L134.89 22.044V34.35H130.648L126.091 22.527V32.166L127.162 32.502L127.141 34.35H122.773Z" fill="#723AD8"/>
<path d="M12.913 60.75L12.577 58.923L14.026 58.65V48.339L12.682 48.192V46.239H18.058L22.825 58.734V48.297L21.607 48.15V46.239H26.122L26.437 48.192L25.03 48.444V60.75H20.788L16.231 48.927V58.566L17.302 58.902L17.281 60.75H12.913Z" fill="#737373"/>
<path d="M27.2258 60.75L26.9528 59.112L28.1078 58.734L32.2658 46.239H34.8698L39.0908 58.734L40.0568 59.112L39.8468 60.75H34.3868V59.175L36.0668 58.734L35.3108 56.172H31.1948L30.3968 58.818L32.2448 59.154V60.75H27.2258ZM31.8458 53.967H34.3868L33.2738 49.221L31.8458 53.967Z" fill="#737373"/>
<path d="M50.1857 60.834C49.3737 60.834 48.5967 60.736 47.8547 60.54C47.1127 60.33 46.4617 60.113 45.9017 59.889L46.3217 55.836L48.0857 55.983L48.2537 58.314C48.4357 58.356 48.6807 58.419 48.9887 58.503C49.3107 58.587 49.6677 58.629 50.0597 58.629C50.5077 58.629 50.9137 58.573 51.2777 58.461C51.6557 58.335 51.9567 58.146 52.1807 57.894C52.4187 57.642 52.5377 57.313 52.5377 56.907C52.5377 56.529 52.4397 56.221 52.2437 55.983C52.0477 55.731 51.7537 55.5 51.3617 55.29C50.9837 55.066 50.4937 54.821 49.8917 54.555C49.3457 54.303 48.8417 54.051 48.3797 53.799C47.9177 53.533 47.5117 53.239 47.1617 52.917C46.8257 52.595 46.5597 52.217 46.3637 51.783C46.1677 51.335 46.0697 50.796 46.0697 50.166C46.0697 49.354 46.2867 48.654 46.7207 48.066C47.1687 47.478 47.7637 47.023 48.5057 46.701C49.2617 46.379 50.0877 46.218 50.9837 46.218C51.7117 46.218 52.4187 46.274 53.1047 46.386C53.8047 46.498 54.4277 46.631 54.9737 46.785L55.2887 50.775H53.5247L52.4957 48.549C52.3137 48.521 52.0897 48.493 51.8237 48.465C51.5577 48.437 51.3057 48.423 51.0677 48.423C50.5777 48.423 50.1717 48.5 49.8497 48.654C49.5417 48.794 49.3107 48.983 49.1567 49.221C49.0027 49.459 48.9257 49.725 48.9257 50.019C48.9257 50.299 49.0097 50.551 49.1777 50.775C49.3597 50.985 49.5907 51.181 49.8707 51.363C50.1647 51.531 50.4727 51.692 50.7947 51.846C51.1307 51.986 51.4527 52.133 51.7607 52.287C52.5867 52.679 53.2657 53.071 53.7977 53.463C54.3437 53.855 54.7497 54.296 55.0157 54.786C55.2817 55.276 55.4147 55.857 55.4147 56.529C55.4147 57.313 55.2607 57.978 54.9527 58.524C54.6587 59.07 54.2597 59.518 53.7557 59.868C53.2517 60.204 52.6847 60.449 52.0547 60.603C51.4387 60.757 50.8157 60.834 50.1857 60.834Z" fill="#723AD8"/>
<path d="M56.4084 60.75L56.1354 59.112L57.2904 58.734L61.4484 46.239H64.0524L68.2734 58.734L69.2394 59.112L69.0294 60.75H63.5694V59.175L65.2494 58.734L64.4934 56.172H60.3774L59.5794 58.818L61.4274 59.154V60.75H56.4084ZM61.0284 53.967H63.5694L62.4564 49.221L61.0284 53.967Z" fill="#723AD8"/>
<path d="M70.3964 60.75L70.1024 58.902L71.4674 58.629V48.255L70.1444 48.108V46.239H75.4784L75.7934 48.15L74.2184 48.444V58.545H77.7674L78.5444 56.466H80.2034L79.7624 60.75H70.3964Z" fill="#723AD8"/>
<path d="M80.4641 60.75L80.1911 59.112L81.3461 58.734L85.5041 46.239H88.1081L92.3291 58.734L93.2951 59.112L93.0851 60.75H87.6251V59.175L89.3051 58.734L88.5491 56.172H84.4331L83.6351 58.818L85.4831 59.154V60.75H80.4641ZM85.0841 53.967H87.6251L86.5121 49.221L85.0841 53.967Z" fill="#723AD8"/>
<path d="M12.913 87.15L12.619 85.302L13.984 85.029V74.655L12.661 74.487V72.639H16.399C18.107 72.639 19.563 72.905 20.767 73.437C21.985 73.955 22.916 74.739 23.56 75.789C24.204 76.825 24.526 78.134 24.526 79.716C24.526 81.284 24.253 82.628 23.707 83.748C23.175 84.854 22.37 85.701 21.292 86.289C20.228 86.863 18.898 87.15 17.302 87.15H12.913ZM17.134 84.966C17.876 84.966 18.527 84.854 19.087 84.63C19.647 84.406 20.116 84.077 20.494 83.643C20.872 83.209 21.159 82.67 21.355 82.026C21.551 81.368 21.649 80.619 21.649 79.779C21.649 78.687 21.46 77.777 21.082 77.049C20.718 76.321 20.179 75.775 19.465 75.411C18.751 75.047 17.876 74.858 16.84 74.844H16.735V84.945L17.134 84.966Z" fill="#737373"/>
<path d="M26.12 87.15L25.826 85.302L27.191 85.029V74.655L25.868 74.508V72.639H35.444L35.843 76.923H34.205L33.344 74.844H29.942V78.582H33.134V80.787H29.942V84.945H33.491L34.268 82.866H35.927L35.486 87.15H26.12Z" fill="#737373"/>
<path d="M41.8684 87.15L41.5954 85.512L42.7504 85.134L46.9084 72.639H49.5124L53.7334 85.134L54.6994 85.512L54.4894 87.15H49.0294V85.575L50.7094 85.134L49.9534 82.572H45.8374L45.0394 85.218L46.8874 85.554V87.15H41.8684ZM46.4884 80.367H49.0294L47.9164 75.621L46.4884 80.367Z" fill="#723AD8"/>
<path d="M61.6642 87.234C60.2642 87.234 59.1582 87.024 58.3462 86.604C57.5342 86.184 56.9532 85.582 56.6032 84.798C56.2672 84 56.0992 83.048 56.0992 81.942V74.697L54.6922 74.508V72.639H60.3412V74.487L58.8502 74.718V81.9C58.8502 82.95 59.0532 83.734 59.4592 84.252C59.8792 84.77 60.6142 85.029 61.6642 85.029C62.2242 85.029 62.7002 84.924 63.0922 84.714C63.4842 84.49 63.7852 84.147 63.9952 83.685C64.2052 83.209 64.3102 82.607 64.3102 81.879V74.676L62.9662 74.487V72.639H67.7542V74.55L66.5152 74.823V81.942C66.5152 83.02 66.3262 83.958 65.9482 84.756C65.5842 85.554 65.0382 86.17 64.3102 86.604C63.5962 87.024 62.7142 87.234 61.6642 87.234Z" fill="#723AD8"/>
<path d="M69.4325 87.15L69.1385 85.302L70.5035 85.029V74.655L69.1805 74.508V72.639H74.5145L74.8295 74.55L73.2545 74.844V84.945H76.8035L77.5805 82.866H79.2395L78.7985 87.15H69.4325Z" fill="#723AD8"/>
<path d="M79.5002 87.15L79.2272 85.512L80.3822 85.134L84.5402 72.639H87.1442L91.3652 85.134L92.3312 85.512L92.1212 87.15H86.6612V85.575L88.3412 85.134L87.5852 82.572H83.4692L82.6712 85.218L84.5192 85.554V87.15H79.5002ZM84.1202 80.367H86.6612L85.5482 75.621L84.1202 80.367Z" fill="#723AD8"/>
</svg>
