<svg width="1446" height="1446" viewBox="0 0 1446 1446" fill="none" xmlns="http://www.w3.org/2000/svg">
<g opacity="0.3" clip-path="url(#clip0_1296_1364)">
<rect x="1390.54" y="141.745" width="34.9763" height="31.5382" transform="rotate(-4.59952 1390.54 141.745)" stroke="white" stroke-width="8"/>
<rect x="1410.56" y="523.666" width="34.9763" height="31.5382" transform="rotate(-47.4939 1410.56 523.666)" stroke="white" stroke-width="8"/>
<rect x="701.017" y="14.5297" width="34.9763" height="31.5382" transform="rotate(-17.4919 701.017 14.5297)" stroke="white" stroke-width="8"/>
<rect x="1366.7" y="800.807" width="34.9763" height="31.5382" transform="rotate(-43.8554 1366.7 800.807)" stroke="white" stroke-width="8"/>
<rect x="1107.79" y="1429.28" width="34.9763" height="31.5382" transform="rotate(0.294836 1107.79 1429.28)" stroke="white" stroke-width="8"/>
<path d="M101 1433.5L111 1414L130 1423.5L141.5 1403L161 1414L173 1392.5L191.5 1403" stroke="white" stroke-width="9"/>
<line x1="1069" y1="643.5" x2="1105" y2="643.5" stroke="white" stroke-width="9"/>
<line x1="1199.88" y1="361.182" x2="1225.91" y2="336.311" stroke="white" stroke-width="9"/>
<line x1="170.896" y1="231.883" x2="197.26" y2="256.398" stroke="white" stroke-width="9"/>
<line x1="431.003" y1="545.919" x2="434.322" y2="581.766" stroke="white" stroke-width="9"/>
<line x1="242.675" y1="951.361" x2="278.674" y2="951.485" stroke="white" stroke-width="9"/>
<line x1="640.555" y1="876.039" x2="690.555" y2="883.039" stroke="white" stroke-width="8"/>
<line x1="661.044" y1="904.789" x2="669.058" y2="854.941" stroke="white" stroke-width="8"/>
<line x1="864.846" y1="906.956" x2="903.127" y2="939.875" stroke="white" stroke-width="8"/>
<line x1="866.542" y1="942.22" x2="900.231" y2="904.616" stroke="white" stroke-width="8"/>
<line x1="939.541" y1="246.307" x2="959.689" y2="292.6" stroke="white" stroke-width="8"/>
<line x1="925.728" y1="278.797" x2="972.42" y2="259.593" stroke="white" stroke-width="8"/>
<line x1="8.34736" y1="-7.83849" x2="28.4957" y2="38.4545" stroke="white" stroke-width="8"/>
<line x1="-5.4658" y1="24.6512" x2="41.227" y2="5.44748" stroke="white" stroke-width="8"/>
<line x1="726.768" y1="562.127" x2="777.183" y2="564.827" stroke="white" stroke-width="8"/>
<line x1="749.64" y1="589.02" x2="753.364" y2="538.67" stroke="white" stroke-width="8"/>
<line x1="1315.46" y1="1410.46" x2="1354.56" y2="1442.41" stroke="white" stroke-width="8"/>
<line x1="1318.05" y1="1445.67" x2="1350.78" y2="1407.23" stroke="white" stroke-width="8"/>
<circle cx="1105" cy="1013" r="9" fill="white"/>
<circle cx="718" cy="1162" r="9" fill="white"/>
<circle cx="62" cy="1179" r="9" fill="white"/>
<circle cx="144" cy="739" r="9" fill="white"/>
<circle cx="1069" cy="492" r="9" fill="white"/>
<circle cx="1212" cy="156" r="9" fill="white"/>
<circle cx="1051" cy="49" r="9" fill="white"/>
<circle cx="660" cy="269" r="9" fill="white"/>
<circle cx="357" cy="79" r="9" fill="white"/>
<path d="M914 1228.5C927.167 1223.67 949.5 1225.5 940.5 1255" stroke="white" stroke-width="9"/>
<path d="M427.978 822.001C421.512 809.555 420.493 787.17 450.898 792.351" stroke="white" stroke-width="9"/>
<path d="M441.362 268.679C446.402 255.591 462.498 240 478.757 266.209" stroke="white" stroke-width="9"/>
<path d="M110.5 484L93 515H127.5L110.5 484Z" stroke="white" stroke-width="9"/>
<path d="M1316.31 1198.51L1307.82 1233.08L1341.04 1223.77L1316.31 1198.51Z" stroke="white" stroke-width="9"/>
<path d="M377.08 1149.37L386.405 1183.73L410.956 1159.49L377.08 1149.37Z" stroke="white" stroke-width="9"/>
<path d="M636.802 1351.75L607.495 1371.96L638.513 1387.07L636.802 1351.75Z" stroke="white" stroke-width="9"/>
</g>
<defs>
<clipPath id="clip0_1296_1364">
<rect width="1446" height="1446" fill="white"/>
</clipPath>
</defs>
</svg>
